<svg width="453" height="165" viewBox="0 0 453 165" fill="none" xmlns="http://www.w3.org/2000/svg">
<line x1="12" y1="19" x2="12" y2="72" stroke="url(#paint0_linear_2477_2529)" stroke-width="2" stroke-dasharray="6 6"/>
<line x1="12" y1="93" x2="12" y2="146" stroke="url(#paint1_linear_2477_2529)" stroke-width="2" stroke-dasharray="6 6"/>
<g clip-path="url(#clip0_2477_2529)">
<path d="M10.2783 20.3373C10.2783 20.3373 9.19284 25.6963 2.59805 26.4265L2.09606 23.8603C8.33746 25.4086 10.2783 20.3373 10.2783 20.3373Z" fill="#00A35B"/>
<path d="M11.2612 13.6945C11.2612 13.6945 2.3117 12.7464 3.34544 7.31376C3.67478 5.58494 5.9395 4.70093 7.2371 5.02645C7.2371 5.02645 7.90901 2.67152 11.0322 3.12691C11.0322 3.12691 13.0032 3.32086 13.4405 5.49656C13.5746 6.20035 13.5155 6.92641 13.2693 7.60048C12.8041 8.91745 11.7902 12.0133 11.8948 13.7274C11.8948 13.7274 10.0574 11.7517 9.21685 9.74589C9.21699 9.74579 10.1715 12.7116 11.2612 13.6945Z" fill="#00A35B"/>
<path d="M12.5398 13.1145C12.5398 13.1145 13.8136 4.38046 19.3195 5.57946C21.0709 5.96063 21.895 8.21051 21.5194 9.47005C21.5194 9.47005 23.898 10.211 23.3254 13.2532C23.3254 13.2532 23.06 15.1774 20.8269 15.5308C20.1051 15.6382 19.3671 15.556 18.6883 15.2926C17.3589 14.7902 14.237 13.6901 12.4854 13.7339C12.4854 13.7339 14.5631 12.0022 16.6371 11.2476C16.6357 11.2467 13.5791 12.0807 12.5398 13.1145Z" fill="#00A35B"/>
<path d="M12.7371 14.419C12.7371 14.419 21.6866 15.367 20.653 20.8014C20.3237 22.5302 18.0589 23.4142 16.7613 23.0887C16.7613 23.0887 16.0894 25.4436 12.9663 24.9882C12.9663 24.9882 10.9953 24.7943 10.5579 22.6186C10.4241 21.9149 10.4832 21.189 10.7292 20.515C11.1958 19.196 12.2101 16.0999 12.1053 14.3858C12.1053 14.3858 13.9427 16.3614 14.7856 18.3668C14.7816 18.3689 13.8276 15.4029 12.7371 14.419Z" fill="#00A35B"/>
<path d="M11.4588 14.9999C11.4588 14.9999 10.1845 23.734 4.68023 22.5349C2.9292 22.1537 2.10472 19.9039 2.48027 18.6443C2.48027 18.6443 0.102075 17.9033 0.674289 14.8611C0.674289 14.8611 0.939706 12.937 3.17344 12.5834C3.8951 12.4761 4.63289 12.5583 5.31157 12.8216C6.6409 13.3239 9.7629 14.424 11.5141 14.3803C11.5141 14.3803 9.43637 16.112 7.36236 16.8666C7.36229 16.8666 10.419 16.0336 11.4588 14.9999Z" fill="#00A35B"/>
</g>
<path d="M42.156 22.5V7.1H48.712C49.592 7.1 50.3987 7.32 51.132 7.76C51.88 8.18533 52.474 8.772 52.914 9.52C53.354 10.2533 53.574 11.082 53.574 12.006C53.574 12.842 53.354 13.6193 52.914 14.338C52.474 15.0567 51.8873 15.636 51.154 16.076C50.4207 16.5013 49.6067 16.714 48.712 16.714H44.532V22.5H42.156ZM51.308 22.5L47.392 15.548L49.834 14.998L54.19 22.522L51.308 22.5ZM44.532 14.426H48.932C49.3573 14.426 49.7387 14.3233 50.076 14.118C50.4133 13.898 50.6773 13.6047 50.868 13.238C51.0587 12.8567 51.154 12.4387 51.154 11.984C51.154 11.4707 51.0293 11.0233 50.78 10.642C50.5453 10.246 50.208 9.938 49.768 9.718C49.3427 9.498 48.8587 9.388 48.316 9.388H44.532V14.426ZM61.8412 22.72C60.6532 22.72 59.5972 22.4707 58.6732 21.972C57.7639 21.4587 57.0452 20.762 56.5172 19.882C56.0039 19.002 55.7472 17.99 55.7472 16.846C55.7472 15.9367 55.8939 15.108 56.1872 14.36C56.4805 13.612 56.8839 12.9667 57.3972 12.424C57.9252 11.8667 58.5485 11.4413 59.2672 11.148C60.0005 10.84 60.7925 10.686 61.6432 10.686C62.3912 10.686 63.0879 10.8327 63.7332 11.126C64.3785 11.4047 64.9359 11.7933 65.4052 12.292C65.8892 12.7907 66.2559 13.3847 66.5052 14.074C66.7692 14.7487 66.8939 15.4893 66.8792 16.296L66.8572 17.264H57.4192L56.9132 15.46H64.8992L64.5692 15.834V15.306C64.5252 14.822 64.3639 14.3893 64.0852 14.008C63.8065 13.6267 63.4545 13.326 63.0292 13.106C62.6039 12.886 62.1419 12.776 61.6432 12.776C60.8512 12.776 60.1839 12.93 59.6412 13.238C59.0985 13.5313 58.6879 13.9713 58.4092 14.558C58.1305 15.13 57.9912 15.8413 57.9912 16.692C57.9912 17.4987 58.1599 18.2027 58.4972 18.804C58.8345 19.3907 59.3112 19.8453 59.9272 20.168C60.5432 20.4907 61.2545 20.652 62.0612 20.652C62.6332 20.652 63.1612 20.5567 63.6452 20.366C64.1439 20.1753 64.6792 19.8307 65.2512 19.332L66.3952 20.938C66.0432 21.29 65.6105 21.598 65.0972 21.862C64.5985 22.126 64.0632 22.3387 63.4912 22.5C62.9339 22.6467 62.3839 22.72 61.8412 22.72ZM73.7858 22.72C72.8325 22.72 71.9598 22.456 71.1678 21.928C70.3905 21.4 69.7671 20.6813 69.2978 19.772C68.8285 18.8627 68.5938 17.836 68.5938 16.692C68.5938 15.5333 68.8285 14.5067 69.2978 13.612C69.7818 12.7027 70.4271 11.9913 71.2338 11.478C72.0551 10.9647 72.9718 10.708 73.9838 10.708C74.5851 10.708 75.1351 10.796 75.6338 10.972C76.1325 11.148 76.5651 11.3973 76.9318 11.72C77.3131 12.028 77.6211 12.3873 77.8558 12.798C78.1051 13.2087 78.2591 13.6487 78.3178 14.118L77.8118 13.942V10.95H80.0998V22.5H77.8118V19.75L78.3398 19.596C78.2518 19.992 78.0685 20.3807 77.7898 20.762C77.5258 21.1287 77.1811 21.4587 76.7558 21.752C76.3451 22.0453 75.8831 22.28 75.3698 22.456C74.8711 22.632 74.3431 22.72 73.7858 22.72ZM74.3798 20.63C75.0691 20.63 75.6778 20.4613 76.2058 20.124C76.7338 19.7867 77.1445 19.3247 77.4378 18.738C77.7458 18.1367 77.8998 17.4547 77.8998 16.692C77.8998 15.944 77.7458 15.2767 77.4378 14.69C77.1445 14.1033 76.7338 13.6413 76.2058 13.304C75.6778 12.9667 75.0691 12.798 74.3798 12.798C73.7051 12.798 73.1038 12.9667 72.5758 13.304C72.0625 13.6413 71.6518 14.1033 71.3438 14.69C71.0505 15.2767 70.9038 15.944 70.9038 16.692C70.9038 17.4547 71.0505 18.1367 71.3438 18.738C71.6518 19.3247 72.0625 19.7867 72.5758 20.124C73.1038 20.4613 73.7051 20.63 74.3798 20.63ZM83.3077 22.5V6.22H85.5737V22.5H83.3077ZM89.1592 22.5V10.95H91.4252V22.5H89.1592ZM90.2592 8.398C89.7752 8.398 89.4012 8.27333 89.1372 8.024C88.8732 7.77467 88.7412 7.42267 88.7412 6.968C88.7412 6.54267 88.8732 6.198 89.1372 5.934C89.4158 5.67 89.7898 5.538 90.2592 5.538C90.7432 5.538 91.1172 5.66267 91.3812 5.912C91.6452 6.16133 91.7772 6.51333 91.7772 6.968C91.7772 7.39333 91.6378 7.738 91.3592 8.002C91.0952 8.266 90.7285 8.398 90.2592 8.398ZM94.4242 22.5V20.608L100.386 12.644V12.908H94.4242V10.95H102.85V12.798L96.9762 20.652L96.8882 20.542H102.982V22.5H94.4242ZM110.74 22.72C109.552 22.72 108.496 22.4707 107.572 21.972C106.662 21.4587 105.944 20.762 105.416 19.882C104.902 19.002 104.646 17.99 104.646 16.846C104.646 15.9367 104.792 15.108 105.086 14.36C105.379 13.612 105.782 12.9667 106.296 12.424C106.824 11.8667 107.447 11.4413 108.166 11.148C108.899 10.84 109.691 10.686 110.542 10.686C111.29 10.686 111.986 10.8327 112.632 11.126C113.277 11.4047 113.834 11.7933 114.304 12.292C114.788 12.7907 115.154 13.3847 115.404 14.074C115.668 14.7487 115.792 15.4893 115.778 16.296L115.756 17.264H106.318L105.812 15.46H113.798L113.468 15.834V15.306C113.424 14.822 113.262 14.3893 112.984 14.008C112.705 13.6267 112.353 13.326 111.928 13.106C111.502 12.886 111.04 12.776 110.542 12.776C109.75 12.776 109.082 12.93 108.54 13.238C107.997 13.5313 107.586 13.9713 107.308 14.558C107.029 15.13 106.89 15.8413 106.89 16.692C106.89 17.4987 107.058 18.2027 107.396 18.804C107.733 19.3907 108.21 19.8453 108.826 20.168C109.442 20.4907 110.153 20.652 110.96 20.652C111.532 20.652 112.06 20.5567 112.544 20.366C113.042 20.1753 113.578 19.8307 114.15 19.332L115.294 20.938C114.942 21.29 114.509 21.598 113.996 21.862C113.497 22.126 112.962 22.3387 112.39 22.5C111.832 22.6467 111.282 22.72 110.74 22.72ZM129.598 22.72C128.469 22.72 127.457 22.4633 126.562 21.95C125.682 21.422 124.986 20.7107 124.472 19.816C123.959 18.9067 123.702 17.8727 123.702 16.714C123.702 15.5553 123.959 14.5287 124.472 13.634C124.986 12.7247 125.682 12.0133 126.562 11.5C127.457 10.972 128.469 10.708 129.598 10.708C130.713 10.708 131.71 10.972 132.59 11.5C133.485 12.0133 134.189 12.7247 134.702 13.634C135.216 14.5287 135.472 15.5553 135.472 16.714C135.472 17.8727 135.216 18.9067 134.702 19.816C134.189 20.7107 133.485 21.422 132.59 21.95C131.71 22.4633 130.713 22.72 129.598 22.72ZM129.598 20.652C130.288 20.652 130.904 20.4833 131.446 20.146C131.989 19.794 132.414 19.3247 132.722 18.738C133.03 18.1367 133.177 17.462 133.162 16.714C133.177 15.9513 133.03 15.2767 132.722 14.69C132.414 14.0887 131.989 13.6193 131.446 13.282C130.904 12.9447 130.288 12.776 129.598 12.776C128.909 12.776 128.286 12.952 127.728 13.304C127.186 13.6413 126.76 14.1107 126.452 14.712C126.144 15.2987 125.998 15.966 126.012 16.714C125.998 17.462 126.144 18.1367 126.452 18.738C126.76 19.3247 127.186 19.794 127.728 20.146C128.286 20.4833 128.909 20.652 129.598 20.652ZM147.957 22.72C146.989 22.72 146.117 22.5513 145.339 22.214C144.562 21.8767 143.917 21.378 143.403 20.718L144.943 19.398C145.383 19.9113 145.86 20.2853 146.373 20.52C146.901 20.74 147.495 20.85 148.155 20.85C148.419 20.85 148.661 20.8207 148.881 20.762C149.116 20.6887 149.314 20.586 149.475 20.454C149.651 20.322 149.783 20.168 149.871 19.992C149.959 19.8013 150.003 19.596 150.003 19.376C150.003 18.9947 149.864 18.6867 149.585 18.452C149.439 18.3493 149.204 18.2393 148.881 18.122C148.573 17.99 148.17 17.858 147.671 17.726C146.821 17.506 146.124 17.2567 145.581 16.978C145.039 16.6993 144.621 16.384 144.327 16.032C144.107 15.7533 143.946 15.4527 143.843 15.13C143.741 14.7927 143.689 14.426 143.689 14.03C143.689 13.546 143.792 13.106 143.997 12.71C144.217 12.2993 144.511 11.9473 144.877 11.654C145.259 11.346 145.699 11.1113 146.197 10.95C146.711 10.7887 147.253 10.708 147.825 10.708C148.368 10.708 148.903 10.7813 149.431 10.928C149.974 11.0747 150.473 11.2873 150.927 11.566C151.382 11.8447 151.763 12.1747 152.071 12.556L150.773 13.986C150.495 13.7073 150.187 13.4653 149.849 13.26C149.527 13.04 149.197 12.8713 148.859 12.754C148.522 12.6367 148.214 12.578 147.935 12.578C147.627 12.578 147.349 12.6073 147.099 12.666C146.85 12.7247 146.637 12.8127 146.461 12.93C146.3 13.0473 146.175 13.194 146.087 13.37C145.999 13.546 145.955 13.744 145.955 13.964C145.97 14.1547 146.014 14.338 146.087 14.514C146.175 14.6753 146.293 14.8147 146.439 14.932C146.601 15.0493 146.843 15.174 147.165 15.306C147.488 15.438 147.899 15.5627 148.397 15.68C149.131 15.8707 149.732 16.0833 150.201 16.318C150.685 16.538 151.067 16.7947 151.345 17.088C151.639 17.3667 151.844 17.6893 151.961 18.056C152.079 18.4227 152.137 18.8333 152.137 19.288C152.137 19.948 151.947 20.542 151.565 21.07C151.199 21.5833 150.7 21.9867 150.069 22.28C149.439 22.5733 148.735 22.72 147.957 22.72ZM160.025 22.72C158.837 22.72 157.781 22.4707 156.857 21.972C155.947 21.4587 155.229 20.762 154.701 19.882C154.187 19.002 153.931 17.99 153.931 16.846C153.931 15.9367 154.077 15.108 154.371 14.36C154.664 13.612 155.067 12.9667 155.581 12.424C156.109 11.8667 156.732 11.4413 157.451 11.148C158.184 10.84 158.976 10.686 159.827 10.686C160.575 10.686 161.271 10.8327 161.917 11.126C162.562 11.4047 163.119 11.7933 163.589 12.292C164.073 12.7907 164.439 13.3847 164.689 14.074C164.953 14.7487 165.077 15.4893 165.063 16.296L165.041 17.264H155.603L155.097 15.46H163.083L162.753 15.834V15.306C162.709 14.822 162.547 14.3893 162.269 14.008C161.99 13.6267 161.638 13.326 161.213 13.106C160.787 12.886 160.325 12.776 159.827 12.776C159.035 12.776 158.367 12.93 157.825 13.238C157.282 13.5313 156.871 13.9713 156.593 14.558C156.314 15.13 156.175 15.8413 156.175 16.692C156.175 17.4987 156.343 18.2027 156.681 18.804C157.018 19.3907 157.495 19.8453 158.111 20.168C158.727 20.4907 159.438 20.652 160.245 20.652C160.817 20.652 161.345 20.5567 161.829 20.366C162.327 20.1753 162.863 19.8307 163.435 19.332L164.579 20.938C164.227 21.29 163.794 21.598 163.281 21.862C162.782 22.126 162.247 22.3387 161.675 22.5C161.117 22.6467 160.567 22.72 160.025 22.72ZM171.573 22.72C170.752 22.72 170.033 22.5293 169.417 22.148C168.816 21.7667 168.347 21.2313 168.009 20.542C167.687 19.8527 167.525 19.0313 167.525 18.078V10.95H169.791V17.462C169.791 18.1367 169.894 18.7233 170.099 19.222C170.319 19.706 170.627 20.08 171.023 20.344C171.434 20.608 171.925 20.74 172.497 20.74C172.923 20.74 173.311 20.674 173.663 20.542C174.015 20.3953 174.316 20.1973 174.565 19.948C174.829 19.6987 175.035 19.398 175.181 19.046C175.328 18.694 175.401 18.3127 175.401 17.902V10.95H177.667V22.5H175.401V20.08L175.797 19.816C175.621 20.3587 175.321 20.85 174.895 21.29C174.485 21.73 173.993 22.082 173.421 22.346C172.849 22.5953 172.233 22.72 171.573 22.72ZM191.918 22.72C190.847 22.72 189.886 22.456 189.036 21.928C188.2 21.4 187.532 20.6813 187.034 19.772C186.55 18.8627 186.308 17.8433 186.308 16.714C186.308 15.5847 186.55 14.5653 187.034 13.656C187.532 12.7467 188.2 12.028 189.036 11.5C189.886 10.972 190.847 10.708 191.918 10.708C192.944 10.708 193.876 10.9207 194.712 11.346C195.562 11.7567 196.208 12.3213 196.648 13.04L195.394 14.58C195.159 14.2427 194.858 13.9347 194.492 13.656C194.125 13.3773 193.736 13.1573 193.326 12.996C192.915 12.8347 192.519 12.754 192.138 12.754C191.434 12.754 190.803 12.93 190.246 13.282C189.703 13.6193 189.27 14.0887 188.948 14.69C188.625 15.2913 188.464 15.966 188.464 16.714C188.464 17.462 188.632 18.1367 188.97 18.738C189.307 19.3247 189.754 19.794 190.312 20.146C190.869 20.498 191.485 20.674 192.16 20.674C192.556 20.674 192.937 20.608 193.304 20.476C193.685 20.344 194.052 20.146 194.404 19.882C194.756 19.618 195.086 19.2953 195.394 18.914L196.648 20.454C196.178 21.114 195.504 21.6567 194.624 22.082C193.758 22.5073 192.856 22.72 191.918 22.72ZM203.229 22.72C202.276 22.72 201.403 22.456 200.611 21.928C199.834 21.4 199.211 20.6813 198.741 19.772C198.272 18.8627 198.037 17.836 198.037 16.692C198.037 15.5333 198.272 14.5067 198.741 13.612C199.225 12.7027 199.871 11.9913 200.677 11.478C201.499 10.9647 202.415 10.708 203.427 10.708C204.029 10.708 204.579 10.796 205.077 10.972C205.576 11.148 206.009 11.3973 206.375 11.72C206.757 12.028 207.065 12.3873 207.299 12.798C207.549 13.2087 207.703 13.6487 207.761 14.118L207.255 13.942V10.95H209.543V22.5H207.255V19.75L207.783 19.596C207.695 19.992 207.512 20.3807 207.233 20.762C206.969 21.1287 206.625 21.4587 206.199 21.752C205.789 22.0453 205.327 22.28 204.813 22.456C204.315 22.632 203.787 22.72 203.229 22.72ZM203.823 20.63C204.513 20.63 205.121 20.4613 205.649 20.124C206.177 19.7867 206.588 19.3247 206.881 18.738C207.189 18.1367 207.343 17.4547 207.343 16.692C207.343 15.944 207.189 15.2767 206.881 14.69C206.588 14.1033 206.177 13.6413 205.649 13.304C205.121 12.9667 204.513 12.798 203.823 12.798C203.149 12.798 202.547 12.9667 202.019 13.304C201.506 13.6413 201.095 14.1033 200.787 14.69C200.494 15.2767 200.347 15.944 200.347 16.692C200.347 17.4547 200.494 18.1367 200.787 18.738C201.095 19.3247 201.506 19.7867 202.019 20.124C202.547 20.4613 203.149 20.63 203.823 20.63ZM217.525 22.72C216.469 22.72 215.523 22.4633 214.687 21.95C213.866 21.422 213.213 20.7107 212.729 19.816C212.245 18.9067 212.003 17.8727 212.003 16.714C212.003 15.5553 212.238 14.5287 212.707 13.634C213.191 12.7247 213.844 12.0133 214.665 11.5C215.486 10.972 216.418 10.708 217.459 10.708C218.031 10.708 218.581 10.8033 219.109 10.994C219.652 11.17 220.136 11.4193 220.561 11.742C220.986 12.05 221.316 12.3947 221.551 12.776C221.8 13.1427 221.925 13.5167 221.925 13.898L221.265 13.942V6.22H223.531V22.5H221.265V19.75H221.705C221.705 20.102 221.588 20.454 221.353 20.806C221.118 21.1433 220.803 21.4587 220.407 21.752C220.026 22.0453 219.578 22.28 219.065 22.456C218.566 22.632 218.053 22.72 217.525 22.72ZM217.833 20.762C218.522 20.762 219.131 20.586 219.659 20.234C220.187 19.882 220.598 19.4053 220.891 18.804C221.199 18.188 221.353 17.4913 221.353 16.714C221.353 15.9367 221.199 15.2473 220.891 14.646C220.598 14.03 220.187 13.546 219.659 13.194C219.131 12.842 218.522 12.666 217.833 12.666C217.144 12.666 216.535 12.842 216.007 13.194C215.479 13.546 215.061 14.03 214.753 14.646C214.46 15.2473 214.313 15.9367 214.313 16.714C214.313 17.4913 214.46 18.188 214.753 18.804C215.061 19.4053 215.479 19.882 216.007 20.234C216.535 20.586 217.144 20.762 217.833 20.762ZM231.094 22.72C230.141 22.72 229.268 22.456 228.476 21.928C227.699 21.4 227.076 20.6813 226.606 19.772C226.137 18.8627 225.902 17.836 225.902 16.692C225.902 15.5333 226.137 14.5067 226.606 13.612C227.09 12.7027 227.736 11.9913 228.542 11.478C229.364 10.9647 230.28 10.708 231.292 10.708C231.894 10.708 232.444 10.796 232.942 10.972C233.441 11.148 233.874 11.3973 234.24 11.72C234.622 12.028 234.93 12.3873 235.164 12.798C235.414 13.2087 235.568 13.6487 235.626 14.118L235.12 13.942V10.95H237.408V22.5H235.12V19.75L235.648 19.596C235.56 19.992 235.377 20.3807 235.098 20.762C234.834 21.1287 234.49 21.4587 234.064 21.752C233.654 22.0453 233.192 22.28 232.678 22.456C232.18 22.632 231.652 22.72 231.094 22.72ZM231.688 20.63C232.378 20.63 232.986 20.4613 233.514 20.124C234.042 19.7867 234.453 19.3247 234.746 18.738C235.054 18.1367 235.208 17.4547 235.208 16.692C235.208 15.944 235.054 15.2767 234.746 14.69C234.453 14.1033 234.042 13.6413 233.514 13.304C232.986 12.9667 232.378 12.798 231.688 12.798C231.014 12.798 230.412 12.9667 229.884 13.304C229.371 13.6413 228.96 14.1033 228.652 14.69C228.359 15.2767 228.212 15.944 228.212 16.692C228.212 17.4547 228.359 18.1367 228.652 18.738C228.96 19.3247 229.371 19.7867 229.884 20.124C230.412 20.4613 231.014 20.63 231.688 20.63ZM244.422 22.72C243.454 22.72 242.582 22.5513 241.804 22.214C241.027 21.8767 240.382 21.378 239.868 20.718L241.408 19.398C241.848 19.9113 242.325 20.2853 242.838 20.52C243.366 20.74 243.96 20.85 244.62 20.85C244.884 20.85 245.126 20.8207 245.346 20.762C245.581 20.6887 245.779 20.586 245.94 20.454C246.116 20.322 246.248 20.168 246.336 19.992C246.424 19.8013 246.468 19.596 246.468 19.376C246.468 18.9947 246.329 18.6867 246.05 18.452C245.904 18.3493 245.669 18.2393 245.346 18.122C245.038 17.99 244.635 17.858 244.136 17.726C243.286 17.506 242.589 17.2567 242.046 16.978C241.504 16.6993 241.086 16.384 240.792 16.032C240.572 15.7533 240.411 15.4527 240.308 15.13C240.206 14.7927 240.154 14.426 240.154 14.03C240.154 13.546 240.257 13.106 240.462 12.71C240.682 12.2993 240.976 11.9473 241.342 11.654C241.724 11.346 242.164 11.1113 242.662 10.95C243.176 10.7887 243.718 10.708 244.29 10.708C244.833 10.708 245.368 10.7813 245.896 10.928C246.439 11.0747 246.938 11.2873 247.392 11.566C247.847 11.8447 248.228 12.1747 248.536 12.556L247.238 13.986C246.96 13.7073 246.652 13.4653 246.314 13.26C245.992 13.04 245.662 12.8713 245.324 12.754C244.987 12.6367 244.679 12.578 244.4 12.578C244.092 12.578 243.814 12.6073 243.564 12.666C243.315 12.7247 243.102 12.8127 242.926 12.93C242.765 13.0473 242.64 13.194 242.552 13.37C242.464 13.546 242.42 13.744 242.42 13.964C242.435 14.1547 242.479 14.338 242.552 14.514C242.64 14.6753 242.758 14.8147 242.904 14.932C243.066 15.0493 243.308 15.174 243.63 15.306C243.953 15.438 244.364 15.5627 244.862 15.68C245.596 15.8707 246.197 16.0833 246.666 16.318C247.15 16.538 247.532 16.7947 247.81 17.088C248.104 17.3667 248.309 17.6893 248.426 18.056C248.544 18.4227 248.602 18.8333 248.602 19.288C248.602 19.948 248.412 20.542 248.03 21.07C247.664 21.5833 247.165 21.9867 246.534 22.28C245.904 22.5733 245.2 22.72 244.422 22.72ZM252.53 22.5V8.002H254.796V22.5H252.53ZM250.132 13.15V10.95H257.48V13.15H250.132ZM259.543 22.5V10.95H261.831V14.58L261.611 13.7C261.772 13.1427 262.044 12.6367 262.425 12.182C262.821 11.7273 263.268 11.368 263.767 11.104C264.28 10.84 264.808 10.708 265.351 10.708C265.6 10.708 265.835 10.73 266.055 10.774C266.29 10.818 266.473 10.8693 266.605 10.928L266.011 13.392C265.835 13.3187 265.637 13.26 265.417 13.216C265.212 13.1573 265.006 13.128 264.801 13.128C264.405 13.128 264.024 13.2087 263.657 13.37C263.305 13.5167 262.99 13.7293 262.711 14.008C262.447 14.272 262.234 14.5873 262.073 14.954C261.912 15.306 261.831 15.6947 261.831 16.12V22.5H259.543ZM273.114 22.72C271.985 22.72 270.973 22.4633 270.078 21.95C269.198 21.422 268.501 20.7107 267.988 19.816C267.475 18.9067 267.218 17.8727 267.218 16.714C267.218 15.5553 267.475 14.5287 267.988 13.634C268.501 12.7247 269.198 12.0133 270.078 11.5C270.973 10.972 271.985 10.708 273.114 10.708C274.229 10.708 275.226 10.972 276.106 11.5C277.001 12.0133 277.705 12.7247 278.218 13.634C278.731 14.5287 278.988 15.5553 278.988 16.714C278.988 17.8727 278.731 18.9067 278.218 19.816C277.705 20.7107 277.001 21.422 276.106 21.95C275.226 22.4633 274.229 22.72 273.114 22.72ZM273.114 20.652C273.803 20.652 274.419 20.4833 274.962 20.146C275.505 19.794 275.93 19.3247 276.238 18.738C276.546 18.1367 276.693 17.462 276.678 16.714C276.693 15.9513 276.546 15.2767 276.238 14.69C275.93 14.0887 275.505 13.6193 274.962 13.282C274.419 12.9447 273.803 12.776 273.114 12.776C272.425 12.776 271.801 12.952 271.244 13.304C270.701 13.6413 270.276 14.1107 269.968 14.712C269.66 15.2987 269.513 15.966 269.528 16.714C269.513 17.462 269.66 18.1367 269.968 18.738C270.276 19.3247 270.701 19.794 271.244 20.146C271.801 20.4833 272.425 20.652 273.114 20.652Z" fill="#1B1B1B"/>
<g clip-path="url(#clip1_2477_2529)">
<path d="M10.2783 88.3373C10.2783 88.3373 9.19284 93.6963 2.59805 94.4265L2.09606 91.8603C8.33746 93.4086 10.2783 88.3373 10.2783 88.3373Z" fill="#FDC842"/>
<path d="M11.2612 81.6945C11.2612 81.6945 2.3117 80.7464 3.34544 75.3138C3.67478 73.5849 5.9395 72.7009 7.2371 73.0265C7.2371 73.0265 7.90901 70.6715 11.0322 71.1269C11.0322 71.1269 13.0032 71.3209 13.4405 73.4966C13.5746 74.2004 13.5155 74.9264 13.2693 75.6005C12.8041 76.9174 11.7902 80.0133 11.8948 81.7274C11.8948 81.7274 10.0574 79.7517 9.21685 77.7459C9.21699 77.7458 10.1715 80.7116 11.2612 81.6945Z" fill="#FDC842"/>
<path d="M12.5398 81.1145C12.5398 81.1145 13.8136 72.3805 19.3195 73.5795C21.0709 73.9606 21.895 76.2105 21.5194 77.47C21.5194 77.47 23.898 78.211 23.3254 81.2532C23.3254 81.2532 23.06 83.1774 20.8269 83.5308C20.1051 83.6382 19.3671 83.556 18.6883 83.2926C17.3589 82.7902 14.237 81.6901 12.4854 81.7339C12.4854 81.7339 14.5631 80.0022 16.6371 79.2476C16.6357 79.2467 13.5791 80.0807 12.5398 81.1145Z" fill="#FDC842"/>
<path d="M12.7371 82.419C12.7371 82.419 21.6866 83.367 20.653 88.8014C20.3237 90.5302 18.0589 91.4142 16.7613 91.0887C16.7613 91.0887 16.0894 93.4436 12.9663 92.9882C12.9663 92.9882 10.9953 92.7943 10.5579 90.6186C10.4241 89.9149 10.4832 89.189 10.7292 88.515C11.1958 87.196 12.2101 84.0999 12.1053 82.3858C12.1053 82.3858 13.9427 84.3614 14.7856 86.3668C14.7816 86.3689 13.8276 83.4029 12.7371 82.419Z" fill="#FDC842"/>
<path d="M11.4588 82.9999C11.4588 82.9999 10.1845 91.734 4.68023 90.5349C2.9292 90.1537 2.10472 87.9039 2.48027 86.6443C2.48027 86.6443 0.102075 85.9033 0.674289 82.8611C0.674289 82.8611 0.939706 80.937 3.17344 80.5834C3.8951 80.4761 4.63289 80.5583 5.31157 80.8216C6.6409 81.3239 9.7629 82.424 11.5141 82.3803C11.5141 82.3803 9.43637 84.112 7.36236 84.8666C7.36229 84.8666 10.419 84.0336 11.4588 82.9999Z" fill="#FDC842"/>
</g>
<path d="M49.042 90.72C47.9273 90.72 46.886 90.522 45.918 90.126C44.95 89.7153 44.0993 89.1507 43.366 88.432C42.6327 87.7133 42.0607 86.8773 41.65 85.924C41.254 84.956 41.056 83.9147 41.056 82.8C41.056 81.7 41.254 80.6733 41.65 79.72C42.0607 78.7667 42.6253 77.938 43.344 77.234C44.0773 76.5153 44.928 75.958 45.896 75.562C46.864 75.166 47.9053 74.968 49.02 74.968C49.7973 74.968 50.5527 75.078 51.286 75.298C52.034 75.518 52.7087 75.826 53.31 76.222C53.9113 76.618 54.4027 77.0727 54.784 77.586L53.244 79.192C52.804 78.7667 52.3493 78.4147 51.88 78.136C51.4253 77.8573 50.956 77.6447 50.472 77.498C49.988 77.3513 49.504 77.278 49.02 77.278C48.228 77.278 47.4947 77.4173 46.82 77.696C46.16 77.9747 45.5733 78.3633 45.06 78.862C44.5613 79.3607 44.1727 79.9473 43.894 80.622C43.6153 81.282 43.476 82.008 43.476 82.8C43.476 83.5627 43.6227 84.2887 43.916 84.978C44.2093 85.6527 44.6127 86.2467 45.126 86.76C45.654 87.2733 46.2553 87.6767 46.93 87.97C47.6193 88.2633 48.3453 88.41 49.108 88.41C49.68 88.41 50.2227 88.3293 50.736 88.168C51.2493 87.992 51.704 87.75 52.1 87.442C52.496 87.134 52.804 86.782 53.024 86.386C53.244 85.9753 53.354 85.5427 53.354 85.088V84.648L53.684 84.956H48.976V82.602H55.796C55.8253 82.7633 55.8473 82.9247 55.862 83.086C55.8767 83.2327 55.884 83.3793 55.884 83.526C55.8987 83.658 55.906 83.79 55.906 83.922C55.906 84.934 55.73 85.858 55.378 86.694C55.026 87.5153 54.5347 88.2267 53.904 88.828C53.288 89.4293 52.562 89.8987 51.726 90.236C50.9047 90.5587 50.01 90.72 49.042 90.72ZM62.8718 90.72C61.9184 90.72 61.0458 90.456 60.2538 89.928C59.4764 89.4 58.8531 88.6813 58.3838 87.772C57.9144 86.8627 57.6798 85.836 57.6798 84.692C57.6798 83.5333 57.9144 82.5067 58.3838 81.612C58.8678 80.7027 59.5131 79.9913 60.3198 79.478C61.1411 78.9647 62.0578 78.708 63.0698 78.708C63.6711 78.708 64.2211 78.796 64.7198 78.972C65.2184 79.148 65.6511 79.3973 66.0178 79.72C66.3991 80.028 66.7071 80.3873 66.9418 80.798C67.1911 81.2087 67.3451 81.6487 67.4038 82.118L66.8978 81.942V78.95H69.1858V90.5H66.8978V87.75L67.4258 87.596C67.3378 87.992 67.1544 88.3807 66.8758 88.762C66.6118 89.1287 66.2671 89.4587 65.8418 89.752C65.4311 90.0453 64.9691 90.28 64.4558 90.456C63.9571 90.632 63.4291 90.72 62.8718 90.72ZM63.4658 88.63C64.1551 88.63 64.7638 88.4613 65.2918 88.124C65.8198 87.7867 66.2304 87.3247 66.5238 86.738C66.8318 86.1367 66.9858 85.4547 66.9858 84.692C66.9858 83.944 66.8318 83.2767 66.5238 82.69C66.2304 82.1033 65.8198 81.6413 65.2918 81.304C64.7638 80.9667 64.1551 80.798 63.4658 80.798C62.7911 80.798 62.1898 80.9667 61.6618 81.304C61.1484 81.6413 60.7378 82.1033 60.4298 82.69C60.1364 83.2767 59.9898 83.944 59.9898 84.692C59.9898 85.4547 60.1364 86.1367 60.4298 86.738C60.7378 87.3247 61.1484 87.7867 61.6618 88.124C62.1898 88.4613 62.7911 88.63 63.4658 88.63ZM72.3496 90.5V78.95H74.6156V81.326L74.2196 81.59C74.3663 81.0767 74.6523 80.6073 75.0776 80.182C75.503 79.742 76.009 79.39 76.5956 79.126C77.1823 78.8473 77.7836 78.708 78.3996 78.708C79.2796 78.708 80.013 78.884 80.5996 79.236C81.1863 79.5733 81.6263 80.094 81.9196 80.798C82.213 81.502 82.3596 82.3893 82.3596 83.46V90.5H80.0936V83.614C80.0936 82.954 80.0056 82.4113 79.8296 81.986C79.6536 81.546 79.3823 81.2307 79.0156 81.04C78.649 80.8347 78.1943 80.7467 77.6516 80.776C77.2116 80.776 76.8083 80.8493 76.4416 80.996C76.075 81.128 75.7523 81.3187 75.4736 81.568C75.2096 81.8173 74.997 82.1107 74.8356 82.448C74.689 82.7707 74.6156 83.1227 74.6156 83.504V90.5H73.4936C73.303 90.5 73.1123 90.5 72.9216 90.5C72.731 90.5 72.5403 90.5 72.3496 90.5ZM85.4336 90.5V74.22H87.6996V81.326L87.3036 81.59C87.4503 81.0767 87.7363 80.6073 88.1616 80.182C88.5869 79.742 89.0929 79.39 89.6796 79.126C90.2663 78.8473 90.8676 78.708 91.4836 78.708C92.3636 78.708 93.0969 78.884 93.6836 79.236C94.2703 79.5733 94.7103 80.094 95.0036 80.798C95.2969 81.502 95.4436 82.3893 95.4436 83.46V90.5H93.1776V83.614C93.1776 82.954 93.0896 82.4113 92.9136 81.986C92.7376 81.546 92.4663 81.2307 92.0996 81.04C91.7329 80.8347 91.2783 80.7467 90.7356 80.776C90.2956 80.776 89.8923 80.8493 89.5256 80.996C89.1589 81.128 88.8363 81.3187 88.5576 81.568C88.2936 81.8173 88.0809 82.1107 87.9196 82.448C87.7729 82.7707 87.6996 83.1227 87.6996 83.504V90.5H86.5776C86.3869 90.5 86.1963 90.5 86.0056 90.5C85.8149 90.5 85.6243 90.5 85.4336 90.5ZM103.908 90.72C102.72 90.72 101.664 90.4707 100.74 89.972C99.8303 89.4587 99.1116 88.762 98.5836 87.882C98.0703 87.002 97.8136 85.99 97.8136 84.846C97.8136 83.9367 97.9603 83.108 98.2536 82.36C98.5469 81.612 98.9503 80.9667 99.4636 80.424C99.9916 79.8667 100.615 79.4413 101.334 79.148C102.067 78.84 102.859 78.686 103.71 78.686C104.458 78.686 105.154 78.8327 105.8 79.126C106.445 79.4047 107.002 79.7933 107.472 80.292C107.956 80.7907 108.322 81.3847 108.572 82.074C108.836 82.7487 108.96 83.4893 108.946 84.296L108.924 85.264H99.4856L98.9796 83.46H106.966L106.636 83.834V83.306C106.592 82.822 106.43 82.3893 106.152 82.008C105.873 81.6267 105.521 81.326 105.096 81.106C104.67 80.886 104.208 80.776 103.71 80.776C102.918 80.776 102.25 80.93 101.708 81.238C101.165 81.5313 100.754 81.9713 100.476 82.558C100.197 83.13 100.058 83.8413 100.058 84.692C100.058 85.4987 100.226 86.2027 100.564 86.804C100.901 87.3907 101.378 87.8453 101.994 88.168C102.61 88.4907 103.321 88.652 104.128 88.652C104.7 88.652 105.228 88.5567 105.712 88.366C106.21 88.1753 106.746 87.8307 107.318 87.332L108.462 88.938C108.11 89.29 107.677 89.598 107.164 89.862C106.665 90.126 106.13 90.3387 105.558 90.5C105 90.6467 104.45 90.72 103.908 90.72ZM117.574 90.5V78.95H119.84V81.326L119.444 81.59C119.591 81.0767 119.877 80.6073 120.302 80.182C120.728 79.742 121.234 79.39 121.82 79.126C122.407 78.8473 123.008 78.708 123.624 78.708C124.504 78.708 125.238 78.884 125.824 79.236C126.411 79.5733 126.851 80.094 127.144 80.798C127.438 81.502 127.584 82.3893 127.584 83.46V90.5H125.318V83.614C125.318 82.954 125.23 82.4113 125.054 81.986C124.878 81.546 124.607 81.2307 124.24 81.04C123.874 80.8347 123.419 80.7467 122.876 80.776C122.436 80.776 122.033 80.8493 121.666 80.996C121.3 81.128 120.977 81.3187 120.698 81.568C120.434 81.8173 120.222 82.1107 120.06 82.448C119.914 82.7707 119.84 83.1227 119.84 83.504V90.5H118.718C118.528 90.5 118.337 90.5 118.146 90.5C117.956 90.5 117.765 90.5 117.574 90.5ZM134.706 90.72C133.885 90.72 133.166 90.5293 132.55 90.148C131.949 89.7667 131.48 89.2313 131.142 88.542C130.82 87.8527 130.658 87.0313 130.658 86.078V78.95H132.924V85.462C132.924 86.1367 133.027 86.7233 133.232 87.222C133.452 87.706 133.76 88.08 134.156 88.344C134.567 88.608 135.058 88.74 135.63 88.74C136.056 88.74 136.444 88.674 136.796 88.542C137.148 88.3953 137.449 88.1973 137.698 87.948C137.962 87.6987 138.168 87.398 138.314 87.046C138.461 86.694 138.534 86.3127 138.534 85.902V78.95H140.8V90.5H138.534V88.08L138.93 87.816C138.754 88.3587 138.454 88.85 138.028 89.29C137.618 89.73 137.126 90.082 136.554 90.346C135.982 90.5953 135.366 90.72 134.706 90.72ZM134.2 77.168L133.452 76.046L136.598 73.296L138.028 75.1L134.2 77.168ZM143.935 90.5V78.95H146.223V81.414L145.805 81.678C145.922 81.2967 146.105 80.93 146.355 80.578C146.619 80.226 146.934 79.918 147.301 79.654C147.682 79.3753 148.085 79.1553 148.511 78.994C148.951 78.8327 149.398 78.752 149.853 78.752C150.513 78.752 151.092 78.862 151.591 79.082C152.089 79.302 152.5 79.632 152.823 80.072C153.145 80.512 153.38 81.062 153.527 81.722L153.175 81.634L153.329 81.26C153.49 80.9227 153.71 80.6073 153.989 80.314C154.282 80.006 154.612 79.7347 154.979 79.5C155.345 79.2653 155.734 79.082 156.145 78.95C156.555 78.818 156.959 78.752 157.355 78.752C158.22 78.752 158.931 78.928 159.489 79.28C160.061 79.632 160.486 80.1673 160.765 80.886C161.058 81.6047 161.205 82.4993 161.205 83.57V90.5H158.917V83.702C158.917 83.042 158.829 82.5067 158.653 82.096C158.491 81.6707 158.242 81.3553 157.905 81.15C157.567 80.9447 157.135 80.842 156.607 80.842C156.196 80.842 155.807 80.9153 155.441 81.062C155.089 81.194 154.781 81.3847 154.517 81.634C154.253 81.8833 154.047 82.1767 153.901 82.514C153.754 82.8367 153.681 83.196 153.681 83.592V90.5H151.393V83.658C151.393 83.0567 151.305 82.5507 151.129 82.14C150.953 81.7147 150.696 81.392 150.359 81.172C150.021 80.952 149.611 80.842 149.127 80.842C148.716 80.842 148.335 80.9153 147.983 81.062C147.631 81.194 147.323 81.3847 147.059 81.634C146.795 81.8687 146.589 82.1547 146.443 82.492C146.296 82.8147 146.223 83.1667 146.223 83.548V90.5H143.935ZM169.628 90.72C168.44 90.72 167.384 90.4707 166.46 89.972C165.551 89.4587 164.832 88.762 164.304 87.882C163.791 87.002 163.534 85.99 163.534 84.846C163.534 83.9367 163.681 83.108 163.974 82.36C164.268 81.612 164.671 80.9667 165.184 80.424C165.712 79.8667 166.336 79.4413 167.054 79.148C167.788 78.84 168.58 78.686 169.43 78.686C170.178 78.686 170.875 78.8327 171.52 79.126C172.166 79.4047 172.723 79.7933 173.192 80.292C173.676 80.7907 174.043 81.3847 174.292 82.074C174.556 82.7487 174.681 83.4893 174.666 84.296L174.644 85.264H165.206L164.7 83.46H172.686L172.356 83.834V83.306C172.312 82.822 172.151 82.3893 171.872 82.008C171.594 81.6267 171.242 81.326 170.816 81.106C170.391 80.886 169.929 80.776 169.43 80.776C168.638 80.776 167.971 80.93 167.428 81.238C166.886 81.5313 166.475 81.9713 166.196 82.558C165.918 83.13 165.778 83.8413 165.778 84.692C165.778 85.4987 165.947 86.2027 166.284 86.804C166.622 87.3907 167.098 87.8453 167.714 88.168C168.33 88.4907 169.042 88.652 169.848 88.652C170.42 88.652 170.948 88.5567 171.432 88.366C171.931 88.1753 172.466 87.8307 173.038 87.332L174.182 88.938C173.83 89.29 173.398 89.598 172.884 89.862C172.386 90.126 171.85 90.3387 171.278 90.5C170.721 90.6467 170.171 90.72 169.628 90.72ZM177.129 90.5V78.95H179.417V82.58L179.197 81.7C179.358 81.1427 179.63 80.6367 180.011 80.182C180.407 79.7273 180.854 79.368 181.353 79.104C181.866 78.84 182.394 78.708 182.937 78.708C183.186 78.708 183.421 78.73 183.641 78.774C183.876 78.818 184.059 78.8693 184.191 78.928L183.597 81.392C183.421 81.3187 183.223 81.26 183.003 81.216C182.798 81.1573 182.592 81.128 182.387 81.128C181.991 81.128 181.61 81.2087 181.243 81.37C180.891 81.5167 180.576 81.7293 180.297 82.008C180.033 82.272 179.82 82.5873 179.659 82.954C179.498 83.306 179.417 83.6947 179.417 84.12V90.5H177.129ZM190.7 90.72C189.57 90.72 188.558 90.4633 187.664 89.95C186.784 89.422 186.087 88.7107 185.574 87.816C185.06 86.9067 184.804 85.8727 184.804 84.714C184.804 83.5553 185.06 82.5287 185.574 81.634C186.087 80.7247 186.784 80.0133 187.664 79.5C188.558 78.972 189.57 78.708 190.7 78.708C191.814 78.708 192.812 78.972 193.692 79.5C194.586 80.0133 195.29 80.7247 195.804 81.634C196.317 82.5287 196.574 83.5553 196.574 84.714C196.574 85.8727 196.317 86.9067 195.804 87.816C195.29 88.7107 194.586 89.422 193.692 89.95C192.812 90.4633 191.814 90.72 190.7 90.72ZM190.7 88.652C191.389 88.652 192.005 88.4833 192.548 88.146C193.09 87.794 193.516 87.3247 193.824 86.738C194.132 86.1367 194.278 85.462 194.264 84.714C194.278 83.9513 194.132 83.2767 193.824 82.69C193.516 82.0887 193.09 81.6193 192.548 81.282C192.005 80.9447 191.389 80.776 190.7 80.776C190.01 80.776 189.387 80.952 188.83 81.304C188.287 81.6413 187.862 82.1107 187.554 82.712C187.246 83.2987 187.099 83.966 187.114 84.714C187.099 85.462 187.246 86.1367 187.554 86.738C187.862 87.3247 188.287 87.794 188.83 88.146C189.387 88.4833 190.01 88.652 190.7 88.652ZM202.893 90.72C201.925 90.72 201.052 90.5513 200.275 90.214C199.498 89.8767 198.852 89.378 198.339 88.718L199.879 87.398C200.319 87.9113 200.796 88.2853 201.309 88.52C201.837 88.74 202.431 88.85 203.091 88.85C203.355 88.85 203.597 88.8207 203.817 88.762C204.052 88.6887 204.25 88.586 204.411 88.454C204.587 88.322 204.719 88.168 204.807 87.992C204.895 87.8013 204.939 87.596 204.939 87.376C204.939 86.9947 204.8 86.6867 204.521 86.452C204.374 86.3493 204.14 86.2393 203.817 86.122C203.509 85.99 203.106 85.858 202.607 85.726C201.756 85.506 201.06 85.2567 200.517 84.978C199.974 84.6993 199.556 84.384 199.263 84.032C199.043 83.7533 198.882 83.4527 198.779 83.13C198.676 82.7927 198.625 82.426 198.625 82.03C198.625 81.546 198.728 81.106 198.933 80.71C199.153 80.2993 199.446 79.9473 199.813 79.654C200.194 79.346 200.634 79.1113 201.133 78.95C201.646 78.7887 202.189 78.708 202.761 78.708C203.304 78.708 203.839 78.7813 204.367 78.928C204.91 79.0747 205.408 79.2873 205.863 79.566C206.318 79.8447 206.699 80.1747 207.007 80.556L205.709 81.986C205.43 81.7073 205.122 81.4653 204.785 81.26C204.462 81.04 204.132 80.8713 203.795 80.754C203.458 80.6367 203.15 80.578 202.871 80.578C202.563 80.578 202.284 80.6073 202.035 80.666C201.786 80.7247 201.573 80.8127 201.397 80.93C201.236 81.0473 201.111 81.194 201.023 81.37C200.935 81.546 200.891 81.744 200.891 81.964C200.906 82.1547 200.95 82.338 201.023 82.514C201.111 82.6753 201.228 82.8147 201.375 82.932C201.536 83.0493 201.778 83.174 202.101 83.306C202.424 83.438 202.834 83.5627 203.333 83.68C204.066 83.8707 204.668 84.0833 205.137 84.318C205.621 84.538 206.002 84.7947 206.281 85.088C206.574 85.3667 206.78 85.6893 206.897 86.056C207.014 86.4227 207.073 86.8333 207.073 87.288C207.073 87.948 206.882 88.542 206.501 89.07C206.134 89.5833 205.636 89.9867 205.005 90.28C204.374 90.5733 203.67 90.72 202.893 90.72ZM220.554 90.72C219.498 90.72 218.552 90.4633 217.716 89.95C216.895 89.422 216.242 88.7107 215.758 87.816C215.274 86.9067 215.032 85.8727 215.032 84.714C215.032 83.5553 215.267 82.5287 215.736 81.634C216.22 80.7247 216.873 80.0133 217.694 79.5C218.516 78.972 219.447 78.708 220.488 78.708C221.06 78.708 221.61 78.8033 222.138 78.994C222.681 79.17 223.165 79.4193 223.59 79.742C224.016 80.05 224.346 80.3947 224.58 80.776C224.83 81.1427 224.954 81.5167 224.954 81.898L224.294 81.942V74.22H226.56V90.5H224.294V87.75H224.734C224.734 88.102 224.617 88.454 224.382 88.806C224.148 89.1433 223.832 89.4587 223.436 89.752C223.055 90.0453 222.608 90.28 222.094 90.456C221.596 90.632 221.082 90.72 220.554 90.72ZM220.862 88.762C221.552 88.762 222.16 88.586 222.688 88.234C223.216 87.882 223.627 87.4053 223.92 86.804C224.228 86.188 224.382 85.4913 224.382 84.714C224.382 83.9367 224.228 83.2473 223.92 82.646C223.627 82.03 223.216 81.546 222.688 81.194C222.16 80.842 221.552 80.666 220.862 80.666C220.173 80.666 219.564 80.842 219.036 81.194C218.508 81.546 218.09 82.03 217.782 82.646C217.489 83.2473 217.342 83.9367 217.342 84.714C217.342 85.4913 217.489 86.188 217.782 86.804C218.09 87.4053 218.508 87.882 219.036 88.234C219.564 88.586 220.173 88.762 220.862 88.762ZM234.124 90.72C233.17 90.72 232.298 90.456 231.506 89.928C230.728 89.4 230.105 88.6813 229.636 87.772C229.166 86.8627 228.932 85.836 228.932 84.692C228.932 83.5333 229.166 82.5067 229.636 81.612C230.12 80.7027 230.765 79.9913 231.572 79.478C232.393 78.9647 233.31 78.708 234.322 78.708C234.923 78.708 235.473 78.796 235.972 78.972C236.47 79.148 236.903 79.3973 237.27 79.72C237.651 80.028 237.959 80.3873 238.194 80.798C238.443 81.2087 238.597 81.6487 238.656 82.118L238.15 81.942V78.95H240.438V90.5H238.15V87.75L238.678 87.596C238.59 87.992 238.406 88.3807 238.128 88.762C237.864 89.1287 237.519 89.4587 237.094 89.752C236.683 90.0453 236.221 90.28 235.708 90.456C235.209 90.632 234.681 90.72 234.124 90.72ZM234.718 88.63C235.407 88.63 236.016 88.4613 236.544 88.124C237.072 87.7867 237.482 87.3247 237.776 86.738C238.084 86.1367 238.238 85.4547 238.238 84.692C238.238 83.944 238.084 83.2767 237.776 82.69C237.482 82.1033 237.072 81.6413 236.544 81.304C236.016 80.9667 235.407 80.798 234.718 80.798C234.043 80.798 233.442 80.9667 232.914 81.304C232.4 81.6413 231.99 82.1033 231.682 82.69C231.388 83.2767 231.242 83.944 231.242 84.692C231.242 85.4547 231.388 86.1367 231.682 86.738C231.99 87.3247 232.4 87.7867 232.914 88.124C233.442 88.4613 234.043 88.63 234.718 88.63ZM253.618 90.72C252.65 90.72 251.777 90.5513 251 90.214C250.222 89.8767 249.577 89.378 249.064 88.718L250.604 87.398C251.044 87.9113 251.52 88.2853 252.034 88.52C252.562 88.74 253.156 88.85 253.816 88.85C254.08 88.85 254.322 88.8207 254.542 88.762C254.776 88.6887 254.974 88.586 255.136 88.454C255.312 88.322 255.444 88.168 255.532 87.992C255.62 87.8013 255.664 87.596 255.664 87.376C255.664 86.9947 255.524 86.6867 255.246 86.452C255.099 86.3493 254.864 86.2393 254.542 86.122C254.234 85.99 253.83 85.858 253.332 85.726C252.481 85.506 251.784 85.2567 251.242 84.978C250.699 84.6993 250.281 84.384 249.988 84.032C249.768 83.7533 249.606 83.4527 249.504 83.13C249.401 82.7927 249.35 82.426 249.35 82.03C249.35 81.546 249.452 81.106 249.658 80.71C249.878 80.2993 250.171 79.9473 250.538 79.654C250.919 79.346 251.359 79.1113 251.858 78.95C252.371 78.7887 252.914 78.708 253.486 78.708C254.028 78.708 254.564 78.7813 255.092 78.928C255.634 79.0747 256.133 79.2873 256.588 79.566C257.042 79.8447 257.424 80.1747 257.732 80.556L256.434 81.986C256.155 81.7073 255.847 81.4653 255.51 81.26C255.187 81.04 254.857 80.8713 254.52 80.754C254.182 80.6367 253.874 80.578 253.596 80.578C253.288 80.578 253.009 80.6073 252.76 80.666C252.51 80.7247 252.298 80.8127 252.122 80.93C251.96 81.0473 251.836 81.194 251.748 81.37C251.66 81.546 251.616 81.744 251.616 81.964C251.63 82.1547 251.674 82.338 251.748 82.514C251.836 82.6753 251.953 82.8147 252.1 82.932C252.261 83.0493 252.503 83.174 252.826 83.306C253.148 83.438 253.559 83.5627 254.058 83.68C254.791 83.8707 255.392 84.0833 255.862 84.318C256.346 84.538 256.727 84.7947 257.006 85.088C257.299 85.3667 257.504 85.6893 257.622 86.056C257.739 86.4227 257.798 86.8333 257.798 87.288C257.798 87.948 257.607 88.542 257.226 89.07C256.859 89.5833 256.36 89.9867 255.73 90.28C255.099 90.5733 254.395 90.72 253.618 90.72ZM265.487 90.72C264.358 90.72 263.346 90.4633 262.451 89.95C261.571 89.422 260.874 88.7107 260.361 87.816C259.848 86.9067 259.591 85.8727 259.591 84.714C259.591 83.5553 259.848 82.5287 260.361 81.634C260.874 80.7247 261.571 80.0133 262.451 79.5C263.346 78.972 264.358 78.708 265.487 78.708C266.602 78.708 267.599 78.972 268.479 79.5C269.374 80.0133 270.078 80.7247 270.591 81.634C271.104 82.5287 271.361 83.5553 271.361 84.714C271.361 85.8727 271.104 86.9067 270.591 87.816C270.078 88.7107 269.374 89.422 268.479 89.95C267.599 90.4633 266.602 90.72 265.487 90.72ZM265.487 88.652C266.176 88.652 266.792 88.4833 267.335 88.146C267.878 87.794 268.303 87.3247 268.611 86.738C268.919 86.1367 269.066 85.462 269.051 84.714C269.066 83.9513 268.919 83.2767 268.611 82.69C268.303 82.0887 267.878 81.6193 267.335 81.282C266.792 80.9447 266.176 80.776 265.487 80.776C264.798 80.776 264.174 80.952 263.617 81.304C263.074 81.6413 262.649 82.1107 262.341 82.712C262.033 83.2987 261.886 83.966 261.901 84.714C261.886 85.462 262.033 86.1367 262.341 86.738C262.649 87.3247 263.074 87.794 263.617 88.146C264.174 88.4833 264.798 88.652 265.487 88.652ZM273.83 90.5V78.95H276.118V82.58L275.898 81.7C276.059 81.1427 276.331 80.6367 276.712 80.182C277.108 79.7273 277.555 79.368 278.054 79.104C278.567 78.84 279.095 78.708 279.638 78.708C279.887 78.708 280.122 78.73 280.342 78.774C280.577 78.818 280.76 78.8693 280.892 78.928L280.298 81.392C280.122 81.3187 279.924 81.26 279.704 81.216C279.499 81.1573 279.293 81.128 279.088 81.128C278.692 81.128 278.311 81.2087 277.944 81.37C277.592 81.5167 277.277 81.7293 276.998 82.008C276.734 82.272 276.521 82.5873 276.36 82.954C276.199 83.306 276.118 83.6947 276.118 84.12V90.5H273.83ZM284.563 90.5V76.002H286.829V90.5H284.563ZM282.165 81.15V78.95H289.513V81.15H282.165ZM296.859 90.72C295.671 90.72 294.615 90.4707 293.691 89.972C292.781 89.4587 292.063 88.762 291.535 87.882C291.021 87.002 290.765 85.99 290.765 84.846C290.765 83.9367 290.911 83.108 291.205 82.36C291.498 81.612 291.901 80.9667 292.415 80.424C292.943 79.8667 293.566 79.4413 294.285 79.148C295.018 78.84 295.81 78.686 296.661 78.686C297.409 78.686 298.105 78.8327 298.751 79.126C299.396 79.4047 299.953 79.7933 300.423 80.292C300.907 80.7907 301.273 81.3847 301.523 82.074C301.787 82.7487 301.911 83.4893 301.897 84.296L301.875 85.264H292.437L291.931 83.46H299.917L299.587 83.834V83.306C299.543 82.822 299.381 82.3893 299.103 82.008C298.824 81.6267 298.472 81.326 298.047 81.106C297.621 80.886 297.159 80.776 296.661 80.776C295.869 80.776 295.201 80.93 294.659 81.238C294.116 81.5313 293.705 81.9713 293.427 82.558C293.148 83.13 293.009 83.8413 293.009 84.692C293.009 85.4987 293.177 86.2027 293.515 86.804C293.852 87.3907 294.329 87.8453 294.945 88.168C295.561 88.4907 296.272 88.652 297.079 88.652C297.651 88.652 298.179 88.5567 298.663 88.366C299.161 88.1753 299.697 87.8307 300.269 87.332L301.413 88.938C301.061 89.29 300.628 89.598 300.115 89.862C299.616 90.126 299.081 90.3387 298.509 90.5C297.951 90.6467 297.401 90.72 296.859 90.72Z" fill="#1B1B1B"/>
<g clip-path="url(#clip2_2477_2529)">
<path d="M10.2783 156.337C10.2783 156.337 9.19284 161.696 2.59805 162.427L2.09606 159.86C8.33746 161.409 10.2783 156.337 10.2783 156.337Z" fill="#1374DE"/>
<path d="M11.2612 149.694C11.2612 149.694 2.3117 148.746 3.34544 143.314C3.67478 141.585 5.9395 140.701 7.2371 141.026C7.2371 141.026 7.90901 138.672 11.0322 139.127C11.0322 139.127 13.0032 139.321 13.4405 141.497C13.5746 142.2 13.5155 142.926 13.2693 143.6C12.8041 144.917 11.7902 148.013 11.8948 149.727C11.8948 149.727 10.0574 147.752 9.21685 145.746C9.21699 145.746 10.1715 148.712 11.2612 149.694Z" fill="#1374DE"/>
<path d="M12.5398 149.114C12.5398 149.114 13.8136 140.38 19.3195 141.579C21.0709 141.961 21.895 144.211 21.5194 145.47C21.5194 145.47 23.898 146.211 23.3254 149.253C23.3254 149.253 23.06 151.177 20.8269 151.531C20.1051 151.638 19.3671 151.556 18.6883 151.293C17.3589 150.79 14.237 149.69 12.4854 149.734C12.4854 149.734 14.5631 148.002 16.6371 147.248C16.6357 147.247 13.5791 148.081 12.5398 149.114Z" fill="#1374DE"/>
<path d="M12.7371 150.419C12.7371 150.419 21.6866 151.367 20.653 156.801C20.3237 158.53 18.0589 159.414 16.7613 159.089C16.7613 159.089 16.0894 161.444 12.9663 160.988C12.9663 160.988 10.9953 160.794 10.5579 158.619C10.4241 157.915 10.4832 157.189 10.7292 156.515C11.1958 155.196 12.2101 152.1 12.1053 150.386C12.1053 150.386 13.9427 152.361 14.7856 154.367C14.7816 154.369 13.8276 151.403 12.7371 150.419Z" fill="#1374DE"/>
<path d="M11.4588 151C11.4588 151 10.1845 159.734 4.68023 158.535C2.9292 158.154 2.10472 155.904 2.48027 154.644C2.48027 154.644 0.102075 153.903 0.674289 150.861C0.674289 150.861 0.939706 148.937 3.17344 148.583C3.8951 148.476 4.63289 148.558 5.31157 148.822C6.6409 149.324 9.7629 150.424 11.5141 150.38C11.5141 150.38 9.43637 152.112 7.36236 152.867C7.36229 152.867 10.419 152.034 11.4588 151Z" fill="#1374DE"/>
</g>
<path d="M48.404 158.72C47.3333 158.72 46.3507 158.529 45.456 158.148C44.5613 157.767 43.784 157.224 43.124 156.52C42.464 155.801 41.9507 154.958 41.584 153.99C41.232 153.022 41.056 151.959 41.056 150.8C41.056 149.7 41.2467 148.681 41.628 147.742C42.024 146.789 42.5667 145.953 43.256 145.234C43.9453 144.515 44.7447 143.958 45.654 143.562C46.5633 143.166 47.546 142.968 48.602 142.968C49.35 142.968 50.076 143.085 50.78 143.32C51.4987 143.54 52.144 143.855 52.716 144.266C53.3027 144.662 53.7793 145.117 54.146 145.63L52.562 147.28C52.1367 146.855 51.704 146.503 51.264 146.224C50.8387 145.931 50.3987 145.711 49.944 145.564C49.504 145.417 49.0567 145.344 48.602 145.344C47.8833 145.344 47.2087 145.483 46.578 145.762C45.962 146.026 45.4193 146.4 44.95 146.884C44.4953 147.368 44.136 147.947 43.872 148.622C43.608 149.282 43.476 150.008 43.476 150.8C43.476 151.636 43.6007 152.399 43.85 153.088C44.114 153.763 44.4807 154.342 44.95 154.826C45.4193 155.31 45.9767 155.684 46.622 155.948C47.282 156.197 48.008 156.322 48.8 156.322C49.284 156.322 49.7607 156.256 50.23 156.124C50.6993 155.992 51.1393 155.801 51.55 155.552C51.9607 155.303 52.3347 155.009 52.672 154.672L53.86 156.608C53.5227 157.004 53.0607 157.363 52.474 157.686C51.902 158.009 51.2567 158.265 50.538 158.456C49.834 158.632 49.1227 158.72 48.404 158.72ZM61.7076 158.72C60.5783 158.72 59.5663 158.463 58.6716 157.95C57.7916 157.422 57.095 156.711 56.5816 155.816C56.0683 154.907 55.8116 153.873 55.8116 152.714C55.8116 151.555 56.0683 150.529 56.5816 149.634C57.095 148.725 57.7916 148.013 58.6716 147.5C59.5663 146.972 60.5783 146.708 61.7076 146.708C62.8223 146.708 63.8196 146.972 64.6996 147.5C65.5943 148.013 66.2983 148.725 66.8116 149.634C67.325 150.529 67.5816 151.555 67.5816 152.714C67.5816 153.873 67.325 154.907 66.8116 155.816C66.2983 156.711 65.5943 157.422 64.6996 157.95C63.8196 158.463 62.8223 158.72 61.7076 158.72ZM61.7076 156.652C62.397 156.652 63.013 156.483 63.5556 156.146C64.0983 155.794 64.5236 155.325 64.8316 154.738C65.1396 154.137 65.2863 153.462 65.2716 152.714C65.2863 151.951 65.1396 151.277 64.8316 150.69C64.5236 150.089 64.0983 149.619 63.5556 149.282C63.013 148.945 62.397 148.776 61.7076 148.776C61.0183 148.776 60.395 148.952 59.8376 149.304C59.295 149.641 58.8696 150.111 58.5616 150.712C58.2536 151.299 58.107 151.966 58.1216 152.714C58.107 153.462 58.2536 154.137 58.5616 154.738C58.8696 155.325 59.295 155.794 59.8376 156.146C60.395 156.483 61.0183 156.652 61.7076 156.652ZM70.0508 158.5V146.95H72.3168V149.326L71.9208 149.59C72.0675 149.077 72.3535 148.607 72.7788 148.182C73.2041 147.742 73.7101 147.39 74.2968 147.126C74.8835 146.847 75.4848 146.708 76.1008 146.708C76.9808 146.708 77.7141 146.884 78.3008 147.236C78.8875 147.573 79.3275 148.094 79.6208 148.798C79.9141 149.502 80.0608 150.389 80.0608 151.46V158.5H77.7948V151.614C77.7948 150.954 77.7068 150.411 77.5308 149.986C77.3548 149.546 77.0835 149.231 76.7168 149.04C76.3501 148.835 75.8955 148.747 75.3528 148.776C74.9128 148.776 74.5095 148.849 74.1428 148.996C73.7761 149.128 73.4535 149.319 73.1748 149.568C72.9108 149.817 72.6981 150.111 72.5368 150.448C72.3901 150.771 72.3168 151.123 72.3168 151.504V158.5H71.1948C71.0041 158.5 70.8135 158.5 70.6228 158.5C70.4321 158.5 70.2415 158.5 70.0508 158.5ZM88.0408 158.72C86.9701 158.72 86.0094 158.456 85.1588 157.928C84.3228 157.4 83.6554 156.681 83.1568 155.772C82.6728 154.863 82.4308 153.843 82.4308 152.714C82.4308 151.585 82.6728 150.565 83.1568 149.656C83.6554 148.747 84.3228 148.028 85.1588 147.5C86.0094 146.972 86.9701 146.708 88.0408 146.708C89.0674 146.708 89.9988 146.921 90.8348 147.346C91.6854 147.757 92.3308 148.321 92.7708 149.04L91.5168 150.58C91.2821 150.243 90.9814 149.935 90.6148 149.656C90.2481 149.377 89.8594 149.157 89.4488 148.996C89.0381 148.835 88.6421 148.754 88.2608 148.754C87.5568 148.754 86.9261 148.93 86.3688 149.282C85.8261 149.619 85.3934 150.089 85.0708 150.69C84.7481 151.291 84.5868 151.966 84.5868 152.714C84.5868 153.462 84.7554 154.137 85.0928 154.738C85.4301 155.325 85.8774 155.794 86.4348 156.146C86.9921 156.498 87.6081 156.674 88.2828 156.674C88.6788 156.674 89.0601 156.608 89.4268 156.476C89.8081 156.344 90.1748 156.146 90.5268 155.882C90.8788 155.618 91.2088 155.295 91.5168 154.914L92.7708 156.454C92.3014 157.114 91.6268 157.657 90.7468 158.082C89.8814 158.507 88.9794 158.72 88.0408 158.72ZM100.1 158.72C98.9709 158.72 97.9589 158.463 97.0642 157.95C96.1842 157.422 95.4876 156.711 94.9742 155.816C94.4609 154.907 94.2042 153.873 94.2042 152.714C94.2042 151.555 94.4609 150.529 94.9742 149.634C95.4876 148.725 96.1842 148.013 97.0642 147.5C97.9589 146.972 98.9709 146.708 100.1 146.708C101.215 146.708 102.212 146.972 103.092 147.5C103.987 148.013 104.691 148.725 105.204 149.634C105.718 150.529 105.974 151.555 105.974 152.714C105.974 153.873 105.718 154.907 105.204 155.816C104.691 156.711 103.987 157.422 103.092 157.95C102.212 158.463 101.215 158.72 100.1 158.72ZM100.1 156.652C100.79 156.652 101.406 156.483 101.948 156.146C102.491 155.794 102.916 155.325 103.224 154.738C103.532 154.137 103.679 153.462 103.664 152.714C103.679 151.951 103.532 151.277 103.224 150.69C102.916 150.089 102.491 149.619 101.948 149.282C101.406 148.945 100.79 148.776 100.1 148.776C99.4109 148.776 98.7876 148.952 98.2302 149.304C97.6876 149.641 97.2622 150.111 96.9542 150.712C96.6462 151.299 96.4996 151.966 96.5142 152.714C96.4996 153.462 96.6462 154.137 96.9542 154.738C97.2622 155.325 97.6876 155.794 98.2302 156.146C98.7876 156.483 99.4109 156.652 100.1 156.652ZM108.443 158.5V146.95H110.731V150.58L110.511 149.7C110.673 149.143 110.944 148.637 111.325 148.182C111.721 147.727 112.169 147.368 112.667 147.104C113.181 146.84 113.709 146.708 114.251 146.708C114.501 146.708 114.735 146.73 114.955 146.774C115.19 146.818 115.373 146.869 115.505 146.928L114.911 149.392C114.735 149.319 114.537 149.26 114.317 149.216C114.112 149.157 113.907 149.128 113.701 149.128C113.305 149.128 112.924 149.209 112.557 149.37C112.205 149.517 111.89 149.729 111.611 150.008C111.347 150.272 111.135 150.587 110.973 150.954C110.812 151.306 110.731 151.695 110.731 152.12V158.5H108.443ZM117.316 158.5V146.95H119.604V150.58L119.384 149.7C119.546 149.143 119.817 148.637 120.198 148.182C120.594 147.727 121.042 147.368 121.54 147.104C122.054 146.84 122.582 146.708 123.124 146.708C123.374 146.708 123.608 146.73 123.828 146.774C124.063 146.818 124.246 146.869 124.378 146.928L123.784 149.392C123.608 149.319 123.41 149.26 123.19 149.216C122.985 149.157 122.78 149.128 122.574 149.128C122.178 149.128 121.797 149.209 121.43 149.37C121.078 149.517 120.763 149.729 120.484 150.008C120.22 150.272 120.008 150.587 119.846 150.954C119.685 151.306 119.604 151.695 119.604 152.12V158.5H117.316ZM130.139 158.72C129.186 158.72 128.313 158.456 127.521 157.928C126.744 157.4 126.121 156.681 125.651 155.772C125.182 154.863 124.947 153.836 124.947 152.692C124.947 151.533 125.182 150.507 125.651 149.612C126.135 148.703 126.781 147.991 127.587 147.478C128.409 146.965 129.325 146.708 130.337 146.708C130.939 146.708 131.489 146.796 131.987 146.972C132.486 147.148 132.919 147.397 133.285 147.72C133.667 148.028 133.975 148.387 134.209 148.798C134.459 149.209 134.613 149.649 134.671 150.118L134.165 149.942V146.95H136.453V158.5H134.165V155.75L134.693 155.596C134.605 155.992 134.422 156.381 134.143 156.762C133.879 157.129 133.535 157.459 133.109 157.752C132.699 158.045 132.237 158.28 131.723 158.456C131.225 158.632 130.697 158.72 130.139 158.72ZM130.733 156.63C131.423 156.63 132.031 156.461 132.559 156.124C133.087 155.787 133.498 155.325 133.791 154.738C134.099 154.137 134.253 153.455 134.253 152.692C134.253 151.944 134.099 151.277 133.791 150.69C133.498 150.103 133.087 149.641 132.559 149.304C132.031 148.967 131.423 148.798 130.733 148.798C130.059 148.798 129.457 148.967 128.929 149.304C128.416 149.641 128.005 150.103 127.697 150.69C127.404 151.277 127.257 151.944 127.257 152.692C127.257 153.455 127.404 154.137 127.697 154.738C128.005 155.325 128.416 155.787 128.929 156.124C129.457 156.461 130.059 156.63 130.733 156.63ZM150.227 158.72C149.274 158.72 148.401 158.456 147.609 157.928C146.832 157.4 146.209 156.681 145.739 155.772C145.27 154.863 145.035 153.836 145.035 152.692C145.035 151.533 145.27 150.507 145.739 149.612C146.223 148.703 146.869 147.991 147.675 147.478C148.497 146.965 149.413 146.708 150.425 146.708C151.027 146.708 151.577 146.796 152.075 146.972C152.574 147.148 153.007 147.397 153.373 147.72C153.755 148.028 154.063 148.387 154.297 148.798C154.547 149.209 154.701 149.649 154.759 150.118L154.253 149.942V146.95H156.541V158.5H154.253V155.75L154.781 155.596C154.693 155.992 154.51 156.381 154.231 156.762C153.967 157.129 153.623 157.459 153.197 157.752C152.787 158.045 152.325 158.28 151.811 158.456C151.313 158.632 150.785 158.72 150.227 158.72ZM150.821 156.63C151.511 156.63 152.119 156.461 152.647 156.124C153.175 155.787 153.586 155.325 153.879 154.738C154.187 154.137 154.341 153.455 154.341 152.692C154.341 151.944 154.187 151.277 153.879 150.69C153.586 150.103 153.175 149.641 152.647 149.304C152.119 148.967 151.511 148.798 150.821 148.798C150.147 148.798 149.545 148.967 149.017 149.304C148.504 149.641 148.093 150.103 147.785 150.69C147.492 151.277 147.345 151.944 147.345 152.692C147.345 153.455 147.492 154.137 147.785 154.738C148.093 155.325 148.504 155.787 149.017 156.124C149.545 156.461 150.147 156.63 150.821 156.63ZM169.919 158.72C169.098 158.72 168.379 158.529 167.763 158.148C167.162 157.767 166.692 157.231 166.355 156.542C166.032 155.853 165.871 155.031 165.871 154.078V146.95H168.137V153.462C168.137 154.137 168.24 154.723 168.445 155.222C168.665 155.706 168.973 156.08 169.369 156.344C169.78 156.608 170.271 156.74 170.843 156.74C171.268 156.74 171.657 156.674 172.009 156.542C172.361 156.395 172.662 156.197 172.911 155.948C173.175 155.699 173.38 155.398 173.527 155.046C173.674 154.694 173.747 154.313 173.747 153.902V146.95H176.013V158.5H173.747V156.08L174.143 155.816C173.967 156.359 173.666 156.85 173.241 157.29C172.83 157.73 172.339 158.082 171.767 158.346C171.195 158.595 170.579 158.72 169.919 158.72ZM179.147 158.5V146.95H181.435V149.414L181.017 149.678C181.135 149.297 181.318 148.93 181.567 148.578C181.831 148.226 182.147 147.918 182.513 147.654C182.895 147.375 183.298 147.155 183.723 146.994C184.163 146.833 184.611 146.752 185.065 146.752C185.725 146.752 186.305 146.862 186.803 147.082C187.302 147.302 187.713 147.632 188.035 148.072C188.358 148.512 188.593 149.062 188.739 149.722L188.387 149.634L188.541 149.26C188.703 148.923 188.923 148.607 189.201 148.314C189.495 148.006 189.825 147.735 190.191 147.5C190.558 147.265 190.947 147.082 191.357 146.95C191.768 146.818 192.171 146.752 192.567 146.752C193.433 146.752 194.144 146.928 194.701 147.28C195.273 147.632 195.699 148.167 195.977 148.886C196.271 149.605 196.417 150.499 196.417 151.57V158.5H194.129V151.702C194.129 151.042 194.041 150.507 193.865 150.096C193.704 149.671 193.455 149.355 193.117 149.15C192.78 148.945 192.347 148.842 191.819 148.842C191.409 148.842 191.02 148.915 190.653 149.062C190.301 149.194 189.993 149.385 189.729 149.634C189.465 149.883 189.26 150.177 189.113 150.514C188.967 150.837 188.893 151.196 188.893 151.592V158.5H186.605V151.658C186.605 151.057 186.517 150.551 186.341 150.14C186.165 149.715 185.909 149.392 185.571 149.172C185.234 148.952 184.823 148.842 184.339 148.842C183.929 148.842 183.547 148.915 183.195 149.062C182.843 149.194 182.535 149.385 182.271 149.634C182.007 149.869 181.802 150.155 181.655 150.492C181.509 150.815 181.435 151.167 181.435 151.548V158.5H179.147ZM203.895 158.72C202.942 158.72 202.069 158.456 201.277 157.928C200.5 157.4 199.877 156.681 199.407 155.772C198.938 154.863 198.703 153.836 198.703 152.692C198.703 151.533 198.938 150.507 199.407 149.612C199.891 148.703 200.537 147.991 201.343 147.478C202.165 146.965 203.081 146.708 204.093 146.708C204.695 146.708 205.245 146.796 205.743 146.972C206.242 147.148 206.675 147.397 207.041 147.72C207.423 148.028 207.731 148.387 207.965 148.798C208.215 149.209 208.369 149.649 208.427 150.118L207.921 149.942V146.95H210.209V158.5H207.921V155.75L208.449 155.596C208.361 155.992 208.178 156.381 207.899 156.762C207.635 157.129 207.291 157.459 206.865 157.752C206.455 158.045 205.993 158.28 205.479 158.456C204.981 158.632 204.453 158.72 203.895 158.72ZM204.489 156.63C205.179 156.63 205.787 156.461 206.315 156.124C206.843 155.787 207.254 155.325 207.547 154.738C207.855 154.137 208.009 153.455 208.009 152.692C208.009 151.944 207.855 151.277 207.547 150.69C207.254 150.103 206.843 149.641 206.315 149.304C205.787 148.967 205.179 148.798 204.489 148.798C203.815 148.798 203.213 148.967 202.685 149.304C202.172 149.641 201.761 150.103 201.453 150.69C201.16 151.277 201.013 151.944 201.013 152.692C201.013 153.455 201.16 154.137 201.453 154.738C201.761 155.325 202.172 155.787 202.685 156.124C203.213 156.461 203.815 156.63 204.489 156.63ZM223.323 158.5L218.439 146.95H220.881L224.401 155.596L223.983 155.794L227.745 146.95H230.077L224.951 158.5H223.323ZM232.524 158.5V146.95H234.79V158.5H232.524ZM233.624 144.398C233.14 144.398 232.766 144.273 232.502 144.024C232.238 143.775 232.106 143.423 232.106 142.968C232.106 142.543 232.238 142.198 232.502 141.934C232.781 141.67 233.155 141.538 233.624 141.538C234.108 141.538 234.482 141.663 234.746 141.912C235.01 142.161 235.142 142.513 235.142 142.968C235.142 143.393 235.003 143.738 234.724 144.002C234.46 144.266 234.094 144.398 233.624 144.398ZM242.717 158.72C241.764 158.72 240.891 158.456 240.099 157.928C239.322 157.4 238.699 156.681 238.229 155.772C237.76 154.863 237.525 153.836 237.525 152.692C237.525 151.533 237.76 150.507 238.229 149.612C238.713 148.703 239.359 147.991 240.165 147.478C240.987 146.965 241.903 146.708 242.915 146.708C243.517 146.708 244.067 146.796 244.565 146.972C245.064 147.148 245.497 147.397 245.863 147.72C246.245 148.028 246.553 148.387 246.787 148.798C247.037 149.209 247.191 149.649 247.249 150.118L246.743 149.942V146.95H249.031V158.5H246.743V155.75L247.271 155.596C247.183 155.992 247 156.381 246.721 156.762C246.457 157.129 246.113 157.459 245.687 157.752C245.277 158.045 244.815 158.28 244.301 158.456C243.803 158.632 243.275 158.72 242.717 158.72ZM243.311 156.63C244.001 156.63 244.609 156.461 245.137 156.124C245.665 155.787 246.076 155.325 246.369 154.738C246.677 154.137 246.831 153.455 246.831 152.692C246.831 151.944 246.677 151.277 246.369 150.69C246.076 150.103 245.665 149.641 245.137 149.304C244.609 148.967 244.001 148.798 243.311 148.798C242.637 148.798 242.035 148.967 241.507 149.304C240.994 149.641 240.583 150.103 240.275 150.69C239.982 151.277 239.835 151.944 239.835 152.692C239.835 153.455 239.982 154.137 240.275 154.738C240.583 155.325 240.994 155.787 241.507 156.124C242.035 156.461 242.637 156.63 243.311 156.63ZM257.365 163.56C256.544 163.56 255.723 163.428 254.901 163.164C254.095 162.915 253.442 162.585 252.943 162.174L253.779 160.414C254.073 160.634 254.417 160.825 254.813 160.986C255.209 161.162 255.627 161.294 256.067 161.382C256.507 161.485 256.94 161.536 257.365 161.536C258.172 161.536 258.847 161.404 259.389 161.14C259.932 160.876 260.343 160.487 260.621 159.974C260.9 159.461 261.039 158.823 261.039 158.06V155.838L261.281 155.992C261.208 156.447 260.966 156.887 260.555 157.312C260.159 157.723 259.661 158.06 259.059 158.324C258.458 158.588 257.842 158.72 257.211 158.72C256.111 158.72 255.129 158.463 254.263 157.95C253.413 157.422 252.738 156.711 252.239 155.816C251.741 154.907 251.491 153.873 251.491 152.714C251.491 151.555 251.733 150.529 252.217 149.634C252.716 148.725 253.391 148.013 254.241 147.5C255.107 146.972 256.075 146.708 257.145 146.708C257.585 146.708 258.011 146.767 258.421 146.884C258.832 146.987 259.213 147.141 259.565 147.346C259.917 147.537 260.233 147.749 260.511 147.984C260.79 148.219 261.017 148.468 261.193 148.732C261.369 148.996 261.479 149.245 261.523 149.48L261.039 149.656V146.95H263.305V157.796C263.305 158.72 263.166 159.534 262.887 160.238C262.623 160.957 262.235 161.558 261.721 162.042C261.208 162.541 260.585 162.915 259.851 163.164C259.118 163.428 258.289 163.56 257.365 163.56ZM257.453 156.63C258.172 156.63 258.81 156.461 259.367 156.124C259.925 155.787 260.357 155.325 260.665 154.738C260.973 154.151 261.127 153.477 261.127 152.714C261.127 151.951 260.966 151.277 260.643 150.69C260.335 150.089 259.903 149.619 259.345 149.282C258.803 148.945 258.172 148.776 257.453 148.776C256.749 148.776 256.119 148.952 255.561 149.304C255.019 149.641 254.586 150.111 254.263 150.712C253.955 151.299 253.801 151.966 253.801 152.714C253.801 153.462 253.955 154.137 254.263 154.738C254.586 155.325 255.019 155.787 255.561 156.124C256.119 156.461 256.749 156.63 257.453 156.63ZM271.872 158.72C270.684 158.72 269.628 158.471 268.704 157.972C267.795 157.459 267.076 156.762 266.548 155.882C266.035 155.002 265.778 153.99 265.778 152.846C265.778 151.937 265.925 151.108 266.218 150.36C266.512 149.612 266.915 148.967 267.428 148.424C267.956 147.867 268.58 147.441 269.298 147.148C270.032 146.84 270.824 146.686 271.674 146.686C272.422 146.686 273.119 146.833 273.764 147.126C274.41 147.405 274.967 147.793 275.436 148.292C275.92 148.791 276.287 149.385 276.536 150.074C276.8 150.749 276.925 151.489 276.91 152.296L276.888 153.264H267.45L266.944 151.46H274.93L274.6 151.834V151.306C274.556 150.822 274.395 150.389 274.116 150.008C273.838 149.627 273.486 149.326 273.06 149.106C272.635 148.886 272.173 148.776 271.674 148.776C270.882 148.776 270.215 148.93 269.672 149.238C269.13 149.531 268.719 149.971 268.44 150.558C268.162 151.13 268.022 151.841 268.022 152.692C268.022 153.499 268.191 154.203 268.528 154.804C268.866 155.391 269.342 155.845 269.958 156.168C270.574 156.491 271.286 156.652 272.092 156.652C272.664 156.652 273.192 156.557 273.676 156.366C274.175 156.175 274.71 155.831 275.282 155.332L276.426 156.938C276.074 157.29 275.642 157.598 275.128 157.862C274.63 158.126 274.094 158.339 273.522 158.5C272.965 158.647 272.415 158.72 271.872 158.72ZM279.329 158.5V146.95H281.617V149.414L281.199 149.678C281.316 149.297 281.5 148.93 281.749 148.578C282.013 148.226 282.328 147.918 282.695 147.654C283.076 147.375 283.48 147.155 283.905 146.994C284.345 146.833 284.792 146.752 285.247 146.752C285.907 146.752 286.486 146.862 286.985 147.082C287.484 147.302 287.894 147.632 288.217 148.072C288.54 148.512 288.774 149.062 288.921 149.722L288.569 149.634L288.723 149.26C288.884 148.923 289.104 148.607 289.383 148.314C289.676 148.006 290.006 147.735 290.373 147.5C290.74 147.265 291.128 147.082 291.539 146.95C291.95 146.818 292.353 146.752 292.749 146.752C293.614 146.752 294.326 146.928 294.883 147.28C295.455 147.632 295.88 148.167 296.159 148.886C296.452 149.605 296.599 150.499 296.599 151.57V158.5H294.311V151.702C294.311 151.042 294.223 150.507 294.047 150.096C293.886 149.671 293.636 149.355 293.299 149.15C292.962 148.945 292.529 148.842 292.001 148.842C291.59 148.842 291.202 148.915 290.835 149.062C290.483 149.194 290.175 149.385 289.911 149.634C289.647 149.883 289.442 150.177 289.295 150.514C289.148 150.837 289.075 151.196 289.075 151.592V158.5H286.787V151.658C286.787 151.057 286.699 150.551 286.523 150.14C286.347 149.715 286.09 149.392 285.753 149.172C285.416 148.952 285.005 148.842 284.521 148.842C284.11 148.842 283.729 148.915 283.377 149.062C283.025 149.194 282.717 149.385 282.453 149.634C282.189 149.869 281.984 150.155 281.837 150.492C281.69 150.815 281.617 151.167 281.617 151.548V158.5H279.329ZM305.799 163.34V146.95H308.087V149.59L307.735 149.392C307.823 148.952 308.072 148.534 308.483 148.138C308.894 147.727 309.392 147.397 309.979 147.148C310.58 146.884 311.196 146.752 311.827 146.752C312.868 146.752 313.792 147.009 314.599 147.522C315.406 148.035 316.044 148.739 316.513 149.634C316.982 150.529 317.217 151.555 317.217 152.714C317.217 153.858 316.982 154.885 316.513 155.794C316.058 156.689 315.428 157.4 314.621 157.928C313.814 158.441 312.905 158.698 311.893 158.698C311.218 158.698 310.566 158.566 309.935 158.302C309.304 158.023 308.769 157.671 308.329 157.246C307.889 156.821 307.618 156.381 307.515 155.926L308.087 155.618V163.34H305.799ZM311.519 156.608C312.194 156.608 312.795 156.439 313.323 156.102C313.851 155.765 314.269 155.303 314.577 154.716C314.885 154.129 315.039 153.462 315.039 152.714C315.039 151.966 314.885 151.306 314.577 150.734C314.284 150.147 313.873 149.685 313.345 149.348C312.817 149.011 312.208 148.842 311.519 148.842C310.83 148.842 310.221 149.011 309.693 149.348C309.165 149.671 308.747 150.125 308.439 150.712C308.131 151.299 307.977 151.966 307.977 152.714C307.977 153.462 308.131 154.129 308.439 154.716C308.747 155.303 309.165 155.765 309.693 156.102C310.221 156.439 310.83 156.608 311.519 156.608ZM324.122 158.72C323.168 158.72 322.296 158.456 321.504 157.928C320.726 157.4 320.103 156.681 319.634 155.772C319.164 154.863 318.93 153.836 318.93 152.692C318.93 151.533 319.164 150.507 319.634 149.612C320.118 148.703 320.763 147.991 321.57 147.478C322.391 146.965 323.308 146.708 324.32 146.708C324.921 146.708 325.471 146.796 325.97 146.972C326.468 147.148 326.901 147.397 327.268 147.72C327.649 148.028 327.957 148.387 328.192 148.798C328.441 149.209 328.595 149.649 328.654 150.118L328.148 149.942V146.95H330.436V158.5H328.148V155.75L328.676 155.596C328.588 155.992 328.404 156.381 328.126 156.762C327.862 157.129 327.517 157.459 327.092 157.752C326.681 158.045 326.219 158.28 325.706 158.456C325.207 158.632 324.679 158.72 324.122 158.72ZM324.716 156.63C325.405 156.63 326.014 156.461 326.542 156.124C327.07 155.787 327.48 155.325 327.774 154.738C328.082 154.137 328.236 153.455 328.236 152.692C328.236 151.944 328.082 151.277 327.774 150.69C327.48 150.103 327.07 149.641 326.542 149.304C326.014 148.967 325.405 148.798 324.716 148.798C324.041 148.798 323.44 148.967 322.912 149.304C322.398 149.641 321.988 150.103 321.68 150.69C321.386 151.277 321.24 151.944 321.24 152.692C321.24 153.455 321.386 154.137 321.68 154.738C321.988 155.325 322.398 155.787 322.912 156.124C323.44 156.461 324.041 156.63 324.716 156.63ZM333.6 158.5V146.95H335.888V150.58L335.668 149.7C335.829 149.143 336.1 148.637 336.482 148.182C336.878 147.727 337.325 147.368 337.824 147.104C338.337 146.84 338.865 146.708 339.408 146.708C339.657 146.708 339.892 146.73 340.112 146.774C340.346 146.818 340.53 146.869 340.662 146.928L340.068 149.392C339.892 149.319 339.694 149.26 339.474 149.216C339.268 149.157 339.063 149.128 338.858 149.128C338.462 149.128 338.08 149.209 337.714 149.37C337.362 149.517 337.046 149.729 336.768 150.008C336.504 150.272 336.291 150.587 336.13 150.954C335.968 151.306 335.888 151.695 335.888 152.12V158.5H333.6ZM346.423 158.72C345.469 158.72 344.597 158.456 343.805 157.928C343.027 157.4 342.404 156.681 341.935 155.772C341.465 154.863 341.231 153.836 341.231 152.692C341.231 151.533 341.465 150.507 341.935 149.612C342.419 148.703 343.064 147.991 343.871 147.478C344.692 146.965 345.609 146.708 346.621 146.708C347.222 146.708 347.772 146.796 348.271 146.972C348.769 147.148 349.202 147.397 349.569 147.72C349.95 148.028 350.258 148.387 350.493 148.798C350.742 149.209 350.896 149.649 350.955 150.118L350.449 149.942V146.95H352.737V158.5H350.449V155.75L350.977 155.596C350.889 155.992 350.705 156.381 350.427 156.762C350.163 157.129 349.818 157.459 349.393 157.752C348.982 158.045 348.52 158.28 348.007 158.456C347.508 158.632 346.98 158.72 346.423 158.72ZM347.017 156.63C347.706 156.63 348.315 156.461 348.843 156.124C349.371 155.787 349.781 155.325 350.075 154.738C350.383 154.137 350.537 153.455 350.537 152.692C350.537 151.944 350.383 151.277 350.075 150.69C349.781 150.103 349.371 149.641 348.843 149.304C348.315 148.967 347.706 148.798 347.017 148.798C346.342 148.798 345.741 148.967 345.213 149.304C344.699 149.641 344.289 150.103 343.981 150.69C343.687 151.277 343.541 151.944 343.541 152.692C343.541 153.455 343.687 154.137 343.981 154.738C344.289 155.325 344.699 155.787 345.213 156.124C345.741 156.461 346.342 156.63 347.017 156.63ZM366.51 158.72C365.557 158.72 364.684 158.456 363.892 157.928C363.115 157.4 362.492 156.681 362.022 155.772C361.553 154.863 361.318 153.836 361.318 152.692C361.318 151.533 361.553 150.507 362.022 149.612C362.506 148.703 363.152 147.991 363.958 147.478C364.78 146.965 365.696 146.708 366.708 146.708C367.31 146.708 367.86 146.796 368.358 146.972C368.857 147.148 369.29 147.397 369.656 147.72C370.038 148.028 370.346 148.387 370.58 148.798C370.83 149.209 370.984 149.649 371.042 150.118L370.536 149.942V146.95H372.824V158.5H370.536V155.75L371.064 155.596C370.976 155.992 370.793 156.381 370.514 156.762C370.25 157.129 369.906 157.459 369.48 157.752C369.07 158.045 368.608 158.28 368.094 158.456C367.596 158.632 367.068 158.72 366.51 158.72ZM367.104 156.63C367.794 156.63 368.402 156.461 368.93 156.124C369.458 155.787 369.869 155.325 370.162 154.738C370.47 154.137 370.624 153.455 370.624 152.692C370.624 151.944 370.47 151.277 370.162 150.69C369.869 150.103 369.458 149.641 368.93 149.304C368.402 148.967 367.794 148.798 367.104 148.798C366.43 148.798 365.828 148.967 365.3 149.304C364.787 149.641 364.376 150.103 364.068 150.69C363.775 151.277 363.628 151.944 363.628 152.692C363.628 153.455 363.775 154.137 364.068 154.738C364.376 155.325 364.787 155.787 365.3 156.124C365.828 156.461 366.43 156.63 367.104 156.63ZM382.726 158.5V143.1H388.754C389.854 143.1 390.844 143.283 391.724 143.65C392.619 144.017 393.382 144.545 394.012 145.234C394.643 145.923 395.127 146.737 395.464 147.676C395.802 148.615 395.97 149.656 395.97 150.8C395.97 151.944 395.802 152.993 395.464 153.946C395.127 154.885 394.643 155.699 394.012 156.388C393.396 157.063 392.641 157.583 391.746 157.95C390.852 158.317 389.854 158.5 388.754 158.5H382.726ZM385.102 156.454L385.036 156.212H388.644C389.422 156.212 390.111 156.087 390.712 155.838C391.328 155.589 391.842 155.237 392.252 154.782C392.678 154.313 393 153.741 393.22 153.066C393.44 152.391 393.55 151.636 393.55 150.8C393.55 149.964 393.44 149.216 393.22 148.556C393 147.881 392.678 147.309 392.252 146.84C391.827 146.371 391.314 146.011 390.712 145.762C390.111 145.513 389.422 145.388 388.644 145.388H384.97L385.102 145.19V156.454ZM398.985 158.5V146.95H401.251V158.5H398.985ZM400.085 144.398C399.601 144.398 399.227 144.273 398.963 144.024C398.699 143.775 398.567 143.423 398.567 142.968C398.567 142.543 398.699 142.198 398.963 141.934C399.242 141.67 399.616 141.538 400.085 141.538C400.569 141.538 400.943 141.663 401.207 141.912C401.471 142.161 401.603 142.513 401.603 142.968C401.603 143.393 401.464 143.738 401.185 144.002C400.921 144.266 400.555 144.398 400.085 144.398ZM408.584 158.72C407.616 158.72 406.744 158.551 405.966 158.214C405.189 157.877 404.544 157.378 404.03 156.718L405.57 155.398C406.01 155.911 406.487 156.285 407 156.52C407.528 156.74 408.122 156.85 408.782 156.85C409.046 156.85 409.288 156.821 409.508 156.762C409.743 156.689 409.941 156.586 410.102 156.454C410.278 156.322 410.41 156.168 410.498 155.992C410.586 155.801 410.63 155.596 410.63 155.376C410.63 154.995 410.491 154.687 410.212 154.452C410.066 154.349 409.831 154.239 409.508 154.122C409.2 153.99 408.797 153.858 408.298 153.726C407.448 153.506 406.751 153.257 406.208 152.978C405.666 152.699 405.248 152.384 404.954 152.032C404.734 151.753 404.573 151.453 404.47 151.13C404.368 150.793 404.316 150.426 404.316 150.03C404.316 149.546 404.419 149.106 404.624 148.71C404.844 148.299 405.138 147.947 405.504 147.654C405.886 147.346 406.326 147.111 406.824 146.95C407.338 146.789 407.88 146.708 408.452 146.708C408.995 146.708 409.53 146.781 410.058 146.928C410.601 147.075 411.1 147.287 411.554 147.566C412.009 147.845 412.39 148.175 412.698 148.556L411.4 149.986C411.122 149.707 410.814 149.465 410.476 149.26C410.154 149.04 409.824 148.871 409.486 148.754C409.149 148.637 408.841 148.578 408.562 148.578C408.254 148.578 407.976 148.607 407.726 148.666C407.477 148.725 407.264 148.813 407.088 148.93C406.927 149.047 406.802 149.194 406.714 149.37C406.626 149.546 406.582 149.744 406.582 149.964C406.597 150.155 406.641 150.338 406.714 150.514C406.802 150.675 406.92 150.815 407.066 150.932C407.228 151.049 407.47 151.174 407.792 151.306C408.115 151.438 408.526 151.563 409.024 151.68C409.758 151.871 410.359 152.083 410.828 152.318C411.312 152.538 411.694 152.795 411.972 153.088C412.266 153.367 412.471 153.689 412.588 154.056C412.706 154.423 412.764 154.833 412.764 155.288C412.764 155.948 412.574 156.542 412.192 157.07C411.826 157.583 411.327 157.987 410.696 158.28C410.066 158.573 409.362 158.72 408.584 158.72ZM415.262 158.5V146.95H417.528V149.326L417.132 149.59C417.278 149.077 417.564 148.607 417.99 148.182C418.415 147.742 418.921 147.39 419.508 147.126C420.094 146.847 420.696 146.708 421.312 146.708C422.192 146.708 422.925 146.884 423.512 147.236C424.098 147.573 424.538 148.094 424.832 148.798C425.125 149.502 425.272 150.389 425.272 151.46V158.5H423.006V151.614C423.006 150.954 422.918 150.411 422.742 149.986C422.566 149.546 422.294 149.231 421.928 149.04C421.561 148.835 421.106 148.747 420.564 148.776C420.124 148.776 419.72 148.849 419.354 148.996C418.987 149.128 418.664 149.319 418.386 149.568C418.122 149.817 417.909 150.111 417.748 150.448C417.601 150.771 417.528 151.123 417.528 151.504V158.5H416.406C416.215 158.5 416.024 158.5 415.834 158.5C415.643 158.5 415.452 158.5 415.262 158.5ZM433.736 158.72C432.548 158.72 431.492 158.471 430.568 157.972C429.658 157.459 428.94 156.762 428.412 155.882C427.898 155.002 427.642 153.99 427.642 152.846C427.642 151.937 427.788 151.108 428.082 150.36C428.375 149.612 428.778 148.967 429.292 148.424C429.82 147.867 430.443 147.441 431.162 147.148C431.895 146.84 432.687 146.686 433.538 146.686C434.286 146.686 434.982 146.833 435.628 147.126C436.273 147.405 436.83 147.793 437.3 148.292C437.784 148.791 438.15 149.385 438.4 150.074C438.664 150.749 438.788 151.489 438.774 152.296L438.752 153.264H429.314L428.808 151.46H436.794L436.464 151.834V151.306C436.42 150.822 436.258 150.389 435.98 150.008C435.701 149.627 435.349 149.326 434.924 149.106C434.498 148.886 434.036 148.776 433.538 148.776C432.746 148.776 432.078 148.93 431.536 149.238C430.993 149.531 430.582 149.971 430.304 150.558C430.025 151.13 429.886 151.841 429.886 152.692C429.886 153.499 430.054 154.203 430.392 154.804C430.729 155.391 431.206 155.845 431.822 156.168C432.438 156.491 433.149 156.652 433.956 156.652C434.528 156.652 435.056 156.557 435.54 156.366C436.038 156.175 436.574 155.831 437.146 155.332L438.29 156.938C437.938 157.29 437.505 157.598 436.992 157.862C436.493 158.126 435.958 158.339 435.386 158.5C434.828 158.647 434.278 158.72 433.736 158.72ZM442.958 163.56L445.29 158.17L445.312 159.974L439.548 146.95H442.188L445.796 155.442C445.869 155.589 445.957 155.816 446.06 156.124C446.162 156.417 446.25 156.711 446.324 157.004L445.752 157.136C445.869 156.828 445.979 156.52 446.082 156.212C446.199 155.904 446.309 155.596 446.412 155.288L449.426 146.95H452.11L447.358 158.5L445.4 163.56H442.958Z" fill="#1B1B1B"/>
<defs>
<linearGradient id="paint0_linear_2477_2529" x1="11" y1="51.4101" x2="11" y2="19" gradientUnits="userSpaceOnUse">
<stop stop-color="#D1D3D6"/>
<stop offset="1" stop-color="white" stop-opacity="0"/>
</linearGradient>
<linearGradient id="paint1_linear_2477_2529" x1="11" y1="125.41" x2="11" y2="93" gradientUnits="userSpaceOnUse">
<stop stop-color="#B4B4B4"/>
<stop offset="1" stop-color="#D1D3D6"/>
</linearGradient>
<clipPath id="clip0_2477_2529">
<rect width="24" height="24" fill="white" transform="translate(0 2.5)"/>
</clipPath>
<clipPath id="clip1_2477_2529">
<rect width="24" height="24" fill="white" transform="translate(0 70.5)"/>
</clipPath>
<clipPath id="clip2_2477_2529">
<rect width="24" height="24" fill="white" transform="translate(0 138.5)"/>
</clipPath>
</defs>
</svg>
