<svg width="24" height="160" viewBox="0 0 24 160" fill="none" xmlns="http://www.w3.org/2000/svg">
<line x1="12" y1="16.5" x2="12" y2="69.5" stroke="url(#paint0_linear_2907_2601)" stroke-width="2" stroke-dasharray="6 6"/>
<line x1="12" y1="90.5" x2="12" y2="143.5" stroke="url(#paint1_linear_2907_2601)" stroke-width="2" stroke-dasharray="6 6"/>
<g clip-path="url(#clip0_2907_2601)">
<path d="M10.2783 17.8373C10.2783 17.8373 9.19284 23.1963 2.59805 23.9265L2.09606 21.3603C8.33746 22.9086 10.2783 17.8373 10.2783 17.8373Z" fill="#00A35B"/>
<path d="M11.2612 11.1945C11.2612 11.1945 2.3117 10.2464 3.34544 4.81376C3.67478 3.08494 5.9395 2.20093 7.2371 2.52645C7.2371 2.52645 7.90901 0.171518 11.0322 0.626913C11.0322 0.626913 13.0032 0.820857 13.4405 2.99656C13.5746 3.70035 13.5155 4.42641 13.2693 5.10048C12.8041 6.41745 11.7902 9.51326 11.8948 11.2274C11.8948 11.2274 10.0574 9.25171 9.21685 7.24589C9.217 7.24579 10.1715 10.2116 11.2612 11.1945Z" fill="#00A35B"/>
<path d="M12.5398 10.6145C12.5398 10.6145 13.8136 1.88046 19.3195 3.07946C21.0709 3.46063 21.895 5.71051 21.5194 6.97005C21.5194 6.97005 23.898 7.711 23.3254 10.7532C23.3254 10.7532 23.06 12.6774 20.8269 13.0308C20.1051 13.1382 19.3671 13.056 18.6883 12.7926C17.3589 12.2902 14.237 11.1901 12.4854 11.2339C12.4854 11.2339 14.5631 9.50225 16.6371 8.74763C16.6357 8.7467 13.5791 9.58067 12.5398 10.6145Z" fill="#00A35B"/>
<path d="M12.7371 11.919C12.7371 11.919 21.6866 12.867 20.653 18.3014C20.3237 20.0302 18.0589 20.9142 16.7613 20.5887C16.7613 20.5887 16.0894 22.9436 12.9663 22.4882C12.9663 22.4882 10.9953 22.2943 10.5579 20.1186C10.4241 19.4149 10.4832 18.689 10.7292 18.015C11.1958 16.696 12.2101 13.5999 12.1053 11.8858C12.1053 11.8858 13.9427 13.8614 14.7856 15.8668C14.7816 15.8689 13.8276 12.9029 12.7371 11.919Z" fill="#00A35B"/>
<path d="M11.4588 12.4999C11.4588 12.4999 10.1845 21.234 4.68023 20.0349C2.9292 19.6537 2.10472 17.4039 2.48027 16.1443C2.48027 16.1443 0.102075 15.4033 0.674289 12.3611C0.674289 12.3611 0.939706 10.437 3.17344 10.0834C3.8951 9.97607 4.63289 10.0583 5.31157 10.3216C6.6409 10.8239 9.7629 11.924 11.5141 11.8803C11.5141 11.8803 9.43637 13.612 7.36236 14.3666C7.36229 14.3666 10.419 13.5336 11.4588 12.4999Z" fill="#00A35B"/>
</g>
<g clip-path="url(#clip1_2907_2601)">
<path d="M10.2783 85.8373C10.2783 85.8373 9.19284 91.1963 2.59805 91.9265L2.09606 89.3603C8.33746 90.9086 10.2783 85.8373 10.2783 85.8373Z" fill="#FDC842"/>
<path d="M11.2612 79.1945C11.2612 79.1945 2.3117 78.2464 3.34544 72.8138C3.67478 71.0849 5.9395 70.2009 7.2371 70.5265C7.2371 70.5265 7.90901 68.1715 11.0322 68.6269C11.0322 68.6269 13.0032 68.8209 13.4405 70.9966C13.5746 71.7004 13.5155 72.4264 13.2693 73.1005C12.8041 74.4174 11.7902 77.5133 11.8948 79.2274C11.8948 79.2274 10.0574 77.2517 9.21685 75.2459C9.217 75.2458 10.1715 78.2116 11.2612 79.1945Z" fill="#FDC842"/>
<path d="M12.5398 78.6145C12.5398 78.6145 13.8136 69.8805 19.3195 71.0795C21.0709 71.4606 21.895 73.7105 21.5194 74.97C21.5194 74.97 23.898 75.711 23.3254 78.7532C23.3254 78.7532 23.06 80.6774 20.8269 81.0308C20.1051 81.1382 19.3671 81.056 18.6883 80.7926C17.3589 80.2902 14.237 79.1901 12.4854 79.2339C12.4854 79.2339 14.5631 77.5022 16.6371 76.7476C16.6357 76.7467 13.5791 77.5807 12.5398 78.6145Z" fill="#FDC842"/>
<path d="M12.7371 79.919C12.7371 79.919 21.6866 80.867 20.653 86.3014C20.3237 88.0302 18.0589 88.9142 16.7613 88.5887C16.7613 88.5887 16.0894 90.9436 12.9663 90.4882C12.9663 90.4882 10.9953 90.2943 10.5579 88.1186C10.4241 87.4149 10.4832 86.689 10.7292 86.015C11.1958 84.696 12.2101 81.5999 12.1053 79.8858C12.1053 79.8858 13.9427 81.8614 14.7856 83.8668C14.7816 83.8689 13.8276 80.9029 12.7371 79.919Z" fill="#FDC842"/>
<path d="M11.4588 80.4999C11.4588 80.4999 10.1845 89.234 4.68023 88.0349C2.9292 87.6537 2.10472 85.4039 2.48027 84.1443C2.48027 84.1443 0.102075 83.4033 0.674289 80.3611C0.674289 80.3611 0.939706 78.437 3.17344 78.0834C3.8951 77.9761 4.63289 78.0583 5.31157 78.3216C6.6409 78.8239 9.7629 79.924 11.5141 79.8803C11.5141 79.8803 9.43637 81.612 7.36236 82.3666C7.36229 82.3666 10.419 81.5336 11.4588 80.4999Z" fill="#FDC842"/>
</g>
<g clip-path="url(#clip2_2907_2601)">
<path d="M10.2783 153.837C10.2783 153.837 9.19284 159.196 2.59805 159.927L2.09606 157.36C8.33746 158.909 10.2783 153.837 10.2783 153.837Z" fill="#1374DE"/>
<path d="M11.2612 147.194C11.2612 147.194 2.3117 146.246 3.34544 140.814C3.67478 139.085 5.9395 138.201 7.2371 138.526C7.2371 138.526 7.90901 136.172 11.0322 136.627C11.0322 136.627 13.0032 136.821 13.4405 138.997C13.5746 139.7 13.5155 140.426 13.2693 141.1C12.8041 142.417 11.7902 145.513 11.8948 147.227C11.8948 147.227 10.0574 145.252 9.21685 143.246C9.217 143.246 10.1715 146.212 11.2612 147.194Z" fill="#1374DE"/>
<path d="M12.5398 146.614C12.5398 146.614 13.8136 137.88 19.3195 139.079C21.0709 139.461 21.895 141.711 21.5194 142.97C21.5194 142.97 23.898 143.711 23.3254 146.753C23.3254 146.753 23.06 148.677 20.8269 149.031C20.1051 149.138 19.3671 149.056 18.6883 148.793C17.3589 148.29 14.237 147.19 12.4854 147.234C12.4854 147.234 14.5631 145.502 16.6371 144.748C16.6357 144.747 13.5791 145.581 12.5398 146.614Z" fill="#1374DE"/>
<path d="M12.7371 147.919C12.7371 147.919 21.6866 148.867 20.653 154.301C20.3237 156.03 18.0589 156.914 16.7613 156.589C16.7613 156.589 16.0894 158.944 12.9663 158.488C12.9663 158.488 10.9953 158.294 10.5579 156.119C10.4241 155.415 10.4832 154.689 10.7292 154.015C11.1958 152.696 12.2101 149.6 12.1053 147.886C12.1053 147.886 13.9427 149.861 14.7856 151.867C14.7816 151.869 13.8276 148.903 12.7371 147.919Z" fill="#1374DE"/>
<path d="M11.4588 148.5C11.4588 148.5 10.1845 157.234 4.68023 156.035C2.9292 155.654 2.10472 153.404 2.48027 152.144C2.48027 152.144 0.102075 151.403 0.674289 148.361C0.674289 148.361 0.939706 146.437 3.17344 146.083C3.8951 145.976 4.63289 146.058 5.31157 146.322C6.6409 146.824 9.7629 147.924 11.5141 147.88C11.5141 147.88 9.43637 149.612 7.36236 150.367C7.36229 150.367 10.419 149.534 11.4588 148.5Z" fill="#1374DE"/>
</g>
<defs>
<linearGradient id="paint0_linear_2907_2601" x1="11" y1="48.9101" x2="11" y2="16.5" gradientUnits="userSpaceOnUse">
<stop stop-color="#D1D3D6"/>
<stop offset="1" stop-color="white" stop-opacity="0"/>
</linearGradient>
<linearGradient id="paint1_linear_2907_2601" x1="11" y1="122.91" x2="11" y2="90.5" gradientUnits="userSpaceOnUse">
<stop stop-color="#B4B4B4"/>
<stop offset="1" stop-color="#D1D3D6"/>
</linearGradient>
<clipPath id="clip0_2907_2601">
<rect width="24" height="24" fill="white"/>
</clipPath>
<clipPath id="clip1_2907_2601">
<rect width="24" height="24" fill="white" transform="translate(0 68)"/>
</clipPath>
<clipPath id="clip2_2907_2601">
<rect width="24" height="24" fill="white" transform="translate(0 136)"/>
</clipPath>
</defs>
</svg>
