<svg width="24" height="24" viewBox="0 0 24 24" fill="none" xmlns="http://www.w3.org/2000/svg">
<g clip-path="url(#clip0_1624_472)">
<path d="M10.2793 17.8368C10.2793 17.8368 9.19382 23.1958 2.59902 23.9261L2.09704 21.3598C8.33843 22.9082 10.2793 17.8368 10.2793 17.8368Z" fill="#0B5EBF"/>
<path d="M11.2603 11.1955C11.2603 11.1955 2.31072 10.2474 3.34446 4.81474C3.6738 3.08592 5.93852 2.20191 7.23613 2.52743C7.23613 2.52743 7.90804 0.172495 11.0312 0.62789C11.0312 0.62789 13.0022 0.821834 13.4395 2.99754C13.5736 3.70133 13.5145 4.42739 13.2684 5.10146C12.8032 6.41842 11.7892 9.51424 11.8938 11.2284C11.8938 11.2284 10.0564 9.25269 9.21588 7.24687C9.21602 7.24676 10.1705 10.2126 11.2603 11.1955Z" fill="#0B5EBF"/>
<path d="M12.5398 10.6141C12.5398 10.6141 13.8136 1.88009 19.3195 3.0791C21.0709 3.46026 21.895 5.71014 21.5194 6.96968C21.5194 6.96968 23.898 7.71064 23.3254 10.7529C23.3254 10.7529 23.06 12.677 20.8269 13.0305C20.1051 13.1379 19.3671 13.0556 18.6883 12.7922C17.3589 12.2898 14.237 11.1897 12.4854 11.2336C12.4854 11.2336 14.5631 9.50188 16.6371 8.74727C16.6357 8.74634 13.5791 9.58031 12.5398 10.6141Z" fill="#0B5EBF"/>
<path d="M12.7371 11.9201C12.7371 11.9201 21.6866 12.8681 20.653 18.3025C20.3237 20.0313 18.0589 20.9153 16.7613 20.5898C16.7613 20.5898 16.0894 22.9447 12.9663 22.4893C12.9663 22.4893 10.9953 22.2954 10.5579 20.1197C10.4241 19.416 10.4832 18.6901 10.7292 18.0161C11.1958 16.6971 12.2101 13.601 12.1053 11.8869C12.1053 11.8869 13.9427 13.8625 14.7856 15.8679C14.7816 15.87 13.8276 12.904 12.7371 11.9201Z" fill="#0B5EBF"/>
<path d="M11.4588 12.4994C11.4588 12.4994 10.1845 21.2335 4.68023 20.0344C2.9292 19.6532 2.10472 17.4034 2.48027 16.1439C2.48027 16.1439 0.102075 15.4028 0.674289 12.3607C0.674289 12.3607 0.939706 10.4365 3.17344 10.083C3.8951 9.97558 4.63289 10.0578 5.31157 10.3211C6.6409 10.8234 9.7629 11.9235 11.5141 11.8798C11.5141 11.8798 9.43637 13.6115 7.36236 14.3661C7.36229 14.3661 10.419 13.5331 11.4588 12.4994Z" fill="#0B5EBF"/>
</g>
<defs>
<clipPath id="clip0_1624_472">
<rect width="24" height="24" fill="white"/>
</clipPath>
</defs>
</svg>
