<svg width="21" height="20" viewBox="0 0 21 20" fill="none" xmlns="http://www.w3.org/2000/svg">
<g clip-path="url(#clip0_2937_3240)">
<path d="M18.8307 4.76745L14.9974 1.55078L13.9224 2.82578L17.7557 6.04245L18.8307 4.76745ZM7.06406 2.82578L5.9974 1.55078L2.16406 4.75911L3.23906 6.03411L7.06406 2.82578ZM10.9141 6.66745H9.66406V11.6674L13.6224 14.0424L14.2474 13.0174L10.9141 11.0424V6.66745ZM10.4974 3.33411C6.35573 3.33411 2.9974 6.69245 2.9974 10.8341C2.9974 14.9758 6.3474 18.3341 10.4974 18.3341C14.6391 18.3341 17.9974 14.9758 17.9974 10.8341C17.9974 6.69245 14.6391 3.33411 10.4974 3.33411ZM10.4974 16.6674C7.2724 16.6674 4.66406 14.0591 4.66406 10.8341C4.66406 7.60911 7.2724 5.00078 10.4974 5.00078C13.7224 5.00078 16.3307 7.60911 16.3307 10.8341C16.3307 14.0591 13.7224 16.6674 10.4974 16.6674Z" fill="#0B5EBF"/>
</g>
<defs>
<clipPath id="clip0_2937_3240">
<rect width="20" height="20" fill="white" transform="translate(0.5)"/>
</clipPath>
</defs>
</svg>
