<svg width="32" height="33" viewBox="0 0 32 33" fill="none" xmlns="http://www.w3.org/2000/svg">
<rect y="0.5" width="32" height="32" rx="16" fill="#008F4F"/>
<g clip-path="url(#clip0_2836_928)">
<path d="M14.7088 20.8778C14.7088 20.8778 13.8946 24.8971 8.94854 25.4448L8.57204 23.5201C13.2531 24.6814 14.7088 20.8778 14.7088 20.8778Z" fill="white"/>
<path d="M15.4445 15.8956C15.4445 15.8956 8.73231 15.1846 9.50761 11.1101C9.75462 9.81346 11.4532 9.15045 12.4264 9.39459C12.4264 9.39459 12.9303 7.62839 15.2727 7.96994C15.2727 7.96994 16.7509 8.1154 17.0789 9.74718C17.1795 10.275 17.1352 10.8196 16.9505 11.3251C16.6016 12.3128 15.8412 14.6347 15.9196 15.9203C15.9196 15.9203 14.5416 14.4385 13.9112 12.9342C13.9113 12.9341 14.6272 15.1585 15.4445 15.8956Z" fill="white"/>
<path d="M16.4053 15.4608C16.4053 15.4608 17.3607 8.91031 21.4901 9.80957C22.8037 10.0954 23.4217 11.7829 23.1401 12.7275C23.1401 12.7275 24.924 13.2832 24.4946 15.5649C24.4946 15.5649 24.2955 17.008 22.6207 17.2731C22.0793 17.3536 21.5259 17.292 21.0168 17.0944C20.0197 16.7176 17.6782 15.8925 16.3645 15.9254C16.3645 15.9254 17.9228 14.6267 19.4783 14.0607C19.4772 14.06 17.1848 14.6855 16.4053 15.4608Z" fill="white"/>
<path d="M16.5533 16.4391C16.5533 16.4391 23.2654 17.1501 22.4902 21.2259C22.2432 22.5225 20.5447 23.1855 19.5715 22.9414C19.5715 22.9414 19.0676 24.7076 16.7252 24.366C16.7252 24.366 15.2469 24.2206 14.9189 22.5888C14.8186 22.061 14.8629 21.5166 15.0474 21.0111C15.3973 20.0218 16.158 17.6998 16.0795 16.4142C16.0795 16.4142 17.4575 17.8959 18.0897 19.4C18.0867 19.4015 17.3712 17.177 16.5533 16.4391Z" fill="white"/>
<path d="M15.5941 16.8747C15.5941 16.8747 14.6383 23.4253 10.5102 22.5259C9.1969 22.24 8.57854 20.5527 8.8602 19.608C8.8602 19.608 7.07656 19.0522 7.50572 16.7706C7.50572 16.7706 7.70478 15.3275 9.38008 15.0623C9.92132 14.9818 10.4747 15.0434 10.9837 15.241C11.9807 15.6177 14.3222 16.4428 15.6356 16.4099C15.6356 16.4099 14.0773 17.7087 12.5218 18.2747C12.5217 18.2747 14.8143 17.65 15.5941 16.8747Z" fill="white"/>
</g>
<defs>
<clipPath id="clip0_2836_928">
<rect width="18" height="18" fill="white" transform="translate(7 7.5)"/>
</clipPath>
</defs>
</svg>
