<svg width="32" height="32" viewBox="0 0 32 32" fill="none" xmlns="http://www.w3.org/2000/svg">
<path d="M13.7058 23.7827C13.7058 23.7827 12.2584 30.9281 3.46537 31.9017L2.79605 28.4801C11.1179 30.5445 13.7058 23.7827 13.7058 23.7827Z" fill="#32BB4E"/>
<path d="M15.014 14.9253C15.014 14.9253 3.08129 13.6612 4.4596 6.4177C4.89873 4.1126 7.91835 2.93392 9.6485 3.36795C9.6485 3.36795 10.5444 0.22804 14.7086 0.835233C14.7086 0.835233 17.3366 1.09383 17.9197 3.99477C18.0984 4.93315 18.0197 5.90123 17.6915 6.8C17.0712 8.55595 15.7192 12.6837 15.8588 14.9692C15.8588 14.9692 13.4089 12.335 12.2882 9.66054C12.2884 9.6604 13.561 13.6149 15.014 14.9253Z" fill="#32BB4E"/>
<path d="M16.7197 14.1522C16.7197 14.1522 18.4182 2.50679 25.7593 4.10546C28.0945 4.61368 29.1933 7.61352 28.6926 9.29291C28.6926 9.29291 31.864 10.2809 31.1006 14.3372C31.1006 14.3372 30.7467 16.9027 27.7692 17.3739C26.8068 17.5171 25.8229 17.4075 24.9178 17.0563C23.1452 16.3865 18.9827 14.9197 16.6471 14.9781C16.6471 14.9781 19.4174 12.6692 22.1828 11.663C22.1809 11.6618 18.1055 12.7737 16.7197 14.1522Z" fill="#32BB4E"/>
<path d="M16.9828 15.8919C16.9828 15.8919 28.9154 17.1559 27.5373 24.4017C27.0982 26.7068 24.0786 27.8855 22.3484 27.4514C22.3484 27.4514 21.4526 30.5914 17.2884 29.9842C17.2884 29.9842 14.6603 29.7256 14.0772 26.8246C13.8988 25.8864 13.9776 24.9185 14.3057 24.0199C14.9277 22.2612 16.2801 18.133 16.1405 15.8475C16.1405 15.8475 18.5903 18.4817 19.7141 21.1556C19.7088 21.1583 18.4367 17.2037 16.9828 15.8919Z" fill="#32BB4E"/>
<path d="M15.2784 16.6665C15.2784 16.6665 13.5793 28.312 6.2403 26.7132C3.9056 26.2049 2.8063 23.2052 3.30702 21.5258C3.30702 21.5258 0.1361 20.5377 0.899052 16.4815C0.899052 16.4815 1.25294 13.916 4.23126 13.4446C5.19346 13.3014 6.17719 13.411 7.08209 13.7621C8.85453 14.4319 13.0172 15.8987 15.3521 15.8403C15.3521 15.8403 12.5818 18.1493 9.81649 19.1554C9.81638 19.1554 13.892 18.0448 15.2784 16.6665Z" fill="#32BB4E"/>
</svg>
