<svg width="25" height="14" viewBox="0 0 25 14" fill="none" xmlns="http://www.w3.org/2000/svg">
<path d="M8.33333 5.41732H5.20833V2.29232H3.125V5.41732H0V7.50065H3.125V10.6257H5.20833V7.50065H8.33333V5.41732ZM18.75 6.45898C20.4792 6.45898 21.8646 5.06315 21.8646 3.33398C21.8646 1.60482 20.4792 0.208984 18.75 0.208984C18.4167 0.208984 18.0938 0.261068 17.8021 0.354818C18.3958 1.19857 18.7396 2.2194 18.7396 3.33398C18.7396 4.44857 18.3854 5.45898 17.8021 6.31315C18.0938 6.4069 18.4167 6.45898 18.75 6.45898ZM13.5417 6.45898C15.2708 6.45898 16.6562 5.06315 16.6562 3.33398C16.6562 1.60482 15.2708 0.208984 13.5417 0.208984C11.8125 0.208984 10.4167 1.60482 10.4167 3.33398C10.4167 5.06315 11.8125 6.45898 13.5417 6.45898ZM20.4375 8.70899C21.3021 9.4694 21.875 10.4382 21.875 11.6673V13.7507H25V11.6673C25 10.0632 22.5312 9.07357 20.4375 8.70899ZM13.5417 8.54232C11.4583 8.54232 7.29167 9.58399 7.29167 11.6673V13.7507H19.7917V11.6673C19.7917 9.58399 15.625 8.54232 13.5417 8.54232Z" fill="white"/>
</svg>
