<svg width="15" height="21" viewBox="0 0 15 21" fill="none" xmlns="http://www.w3.org/2000/svg">
<path d="M12.9993 7.33342H12.0827V5.50008C12.0827 2.97008 10.0293 0.916748 7.49935 0.916748C4.96935 0.916748 2.91602 2.97008 2.91602 5.50008V7.33342H1.99935C0.991016 7.33342 0.166016 8.15841 0.166016 9.16675V18.3334C0.166016 19.3417 0.991016 20.1667 1.99935 20.1667H12.9993C14.0077 20.1667 14.8327 19.3417 14.8327 18.3334V9.16675C14.8327 8.15841 14.0077 7.33342 12.9993 7.33342ZM7.49935 15.5834C6.49102 15.5834 5.66602 14.7584 5.66602 13.7501C5.66602 12.7417 6.49102 11.9167 7.49935 11.9167C8.50768 11.9167 9.33268 12.7417 9.33268 13.7501C9.33268 14.7584 8.50768 15.5834 7.49935 15.5834ZM10.341 7.33342H4.65768V5.50008C4.65768 3.93258 5.93185 2.65841 7.49935 2.65841C9.06685 2.65841 10.341 3.93258 10.341 5.50008V7.33342Z" fill="#F4F4F4"/>
</svg>
