<svg width="16" height="19" viewBox="0 0 16 19" fill="none" xmlns="http://www.w3.org/2000/svg">
<path d="M13.4284 6.33333H12.5236V4.52381C12.5236 2.02667 10.497 0 7.99981 0C5.50267 0 3.476 2.02667 3.476 4.52381V6.33333H2.57124C1.576 6.33333 0.761719 7.14762 0.761719 8.14286V17.1905C0.761719 18.1857 1.576 19 2.57124 19H13.4284C14.4236 19 15.2379 18.1857 15.2379 17.1905V8.14286C15.2379 7.14762 14.4236 6.33333 13.4284 6.33333ZM7.99981 14.4762C7.00458 14.4762 6.19029 13.6619 6.19029 12.6667C6.19029 11.6714 7.00458 10.8571 7.99981 10.8571C8.99505 10.8571 9.80934 11.6714 9.80934 12.6667C9.80934 13.6619 8.99505 14.4762 7.99981 14.4762ZM10.8046 6.33333H5.19505V4.52381C5.19505 2.97667 6.45267 1.71905 7.99981 1.71905C9.54696 1.71905 10.8046 2.97667 10.8046 4.52381V6.33333Z" fill="#B1B0B0"/>
</svg>
