<svg width="15" height="21" viewBox="0 0 15 21" fill="none" xmlns="http://www.w3.org/2000/svg">
<path d="M12.9993 7.33335H12.0827V5.50002C12.0827 2.97002 10.0293 0.916687 7.49935 0.916687C4.96935 0.916687 2.91602 2.97002 2.91602 5.50002V7.33335H1.99935C0.991016 7.33335 0.166016 8.15835 0.166016 9.16669V18.3334C0.166016 19.3417 0.991016 20.1667 1.99935 20.1667H12.9993C14.0077 20.1667 14.8327 19.3417 14.8327 18.3334V9.16669C14.8327 8.15835 14.0077 7.33335 12.9993 7.33335ZM7.49935 15.5834C6.49102 15.5834 5.66602 14.7584 5.66602 13.75C5.66602 12.7417 6.49102 11.9167 7.49935 11.9167C8.50768 11.9167 9.33268 12.7417 9.33268 13.75C9.33268 14.7584 8.50768 15.5834 7.49935 15.5834ZM10.341 7.33335H4.65768V5.50002C4.65768 3.93252 5.93185 2.65835 7.49935 2.65835C9.06685 2.65835 10.341 3.93252 10.341 5.50002V7.33335Z" fill="#2E3D45"/>
</svg>
