<svg width="345" height="50" viewBox="0 0 345 50" fill="none" xmlns="http://www.w3.org/2000/svg">
<g clip-path="url(#clip0_2477_2405)">
<path d="M18.416 35.4583C18.416 35.4583 16.4712 45.0599 4.65549 46.3682L3.75609 41.7704C14.9386 44.5445 18.416 35.4583 18.416 35.4583Z" fill="white"/>
<path d="M20.1762 23.5566C20.1762 23.5566 4.14155 21.858 5.99366 12.1245C6.58373 9.02704 10.6414 7.44319 12.9662 8.02641C12.9662 8.02641 14.1701 3.80716 19.7657 4.62308C19.7657 4.62308 23.2971 4.97056 24.0807 8.8687C24.3208 10.1297 24.215 11.4305 23.774 12.6382C22.9405 14.9978 21.1238 20.5444 21.3113 23.6156C21.3113 23.6156 18.0193 20.0758 16.5133 16.4821C16.5135 16.4819 18.2237 21.7957 20.1762 23.5566Z" fill="white"/>
<path d="M22.4678 22.5176C22.4678 22.5176 24.7502 6.86911 34.6148 9.01733C37.7528 9.70025 39.2293 13.7313 38.5564 15.988C38.5564 15.988 42.818 17.3155 41.7921 22.7662C41.7921 22.7662 41.3166 26.2137 37.3156 26.8469C36.0224 27.0393 34.7002 26.892 33.484 26.42C31.1021 25.5199 25.5087 23.5489 22.3703 23.6274C22.3703 23.6274 26.0929 20.5248 29.8088 19.1728C29.8063 19.1711 24.33 20.6653 22.4678 22.5176Z" fill="white"/>
<path d="M22.8214 24.8548C22.8214 24.8548 38.8558 26.5533 37.004 36.2899C36.4139 39.3874 32.3563 40.9712 30.0314 40.388C30.0314 40.388 28.8276 44.6073 23.232 43.7914C23.232 43.7914 19.7006 43.4439 18.917 39.5457C18.6773 38.285 18.7832 36.9844 19.224 35.7769C20.0598 33.4136 21.8771 27.8664 21.6895 24.7953C21.6895 24.7953 24.9815 28.335 26.4916 31.928C26.4844 31.9316 24.7751 26.6177 22.8214 24.8548Z" fill="white"/>
<path d="M20.5303 25.8956C20.5303 25.8956 18.2472 41.5442 8.38541 39.3959C5.24815 38.7129 3.77096 34.682 4.44381 32.4253C4.44381 32.4253 0.182884 31.0976 1.2081 25.6471C1.2081 25.6471 1.68364 22.1996 5.68575 21.5662C6.97872 21.3738 8.3006 21.521 9.51656 21.9929C11.8983 22.8928 17.4919 24.8638 20.6294 24.7855C20.6294 24.7855 16.9068 27.8881 13.1909 29.2401C13.1908 29.2401 18.6674 27.7477 20.5303 25.8956Z" fill="white"/>
</g>
<path d="M57.7161 39.5V11.2533H65.5445L76.8431 29.6944H72.7272L83.703 11.2533H91.5314L91.6121 39.5H82.9363L82.8556 24.3275H84.2276L76.7221 36.9578H72.5254L64.6971 24.3275H66.3919V39.5H57.7161ZM104.932 21.745H117.522V28.6049H104.932V21.745ZM105.578 32.3173H119.701V39.5H96.2163V11.2533H119.177V18.4361H105.578V32.3173ZM138.015 40.1456C135.729 40.1456 133.617 39.7959 131.68 39.0965C129.77 38.3701 128.102 37.3479 126.676 36.0297C125.278 34.7115 124.188 33.1512 123.408 31.3488C122.628 29.5464 122.238 27.5557 122.238 25.3767C122.238 23.1976 122.628 21.2069 123.408 19.4045C124.188 17.6021 125.291 16.0418 126.717 14.7237C128.143 13.4055 129.824 12.3967 131.761 11.6972C133.725 10.9709 135.877 10.6077 138.217 10.6077C141.015 10.6077 143.503 11.0785 145.682 12.02C147.888 12.9616 149.704 14.3067 151.13 16.0553L145.037 21.4221C144.149 20.3999 143.181 19.6332 142.131 19.1221C141.109 18.584 139.966 18.315 138.701 18.315C137.652 18.315 136.697 18.4764 135.836 18.7992C135.002 19.1221 134.29 19.5928 133.698 20.2116C133.106 20.8303 132.649 21.5701 132.326 22.431C132.003 23.2918 131.841 24.2737 131.841 25.3767C131.841 26.4258 132.003 27.3943 132.326 28.282C132.649 29.1429 133.106 29.8827 133.698 30.5014C134.29 31.1202 134.989 31.6044 135.796 31.9541C136.63 32.2769 137.558 32.4383 138.58 32.4383C139.656 32.4383 140.706 32.2635 141.728 31.9138C142.75 31.5371 143.84 30.9049 144.996 30.0172L150.323 36.5543C148.601 37.711 146.637 38.5988 144.431 39.2175C142.226 39.8363 140.087 40.1456 138.015 40.1456ZM142.051 35.3437V24.61H150.323V36.5543L142.051 35.3437ZM151.314 39.5L163.662 11.2533H173.023L185.371 39.5H175.525L166.405 15.7728H170.118L160.998 39.5H151.314ZM158.658 34.577L161.079 27.7171H174.072L176.494 34.577H158.658ZM197.423 40.1456C195.056 40.1456 192.769 39.8766 190.563 39.3386C188.357 38.8006 186.541 38.1011 185.115 37.2403L188.182 30.2997C189.527 31.0798 191.02 31.712 192.661 32.1962C194.329 32.6535 195.943 32.8822 197.504 32.8822C198.418 32.8822 199.131 32.8284 199.642 32.7208C200.18 32.5863 200.57 32.4114 200.812 32.1962C201.055 31.9541 201.176 31.6716 201.176 31.3488C201.176 30.8377 200.893 30.4342 200.328 30.1383C199.763 29.8423 199.01 29.6002 198.069 29.4119C197.154 29.1967 196.145 28.9815 195.042 28.7663C193.939 28.5242 192.823 28.2148 191.693 27.8382C190.59 27.4615 189.568 26.9639 188.626 26.3451C187.711 25.7264 186.972 24.9193 186.407 23.924C185.842 22.9017 185.559 21.6374 185.559 20.1309C185.559 18.3823 186.044 16.7951 187.012 15.3693C188.007 13.9166 189.473 12.7598 191.41 11.899C193.374 11.0381 195.809 10.6077 198.714 10.6077C200.624 10.6077 202.507 10.8095 204.364 11.213C206.22 11.6165 207.888 12.2353 209.367 13.0692L206.502 19.9695C205.103 19.27 203.745 18.7454 202.427 18.3957C201.135 18.046 199.871 17.8711 198.633 17.8711C197.719 17.8711 196.992 17.9518 196.454 18.1132C195.916 18.2747 195.526 18.4899 195.284 18.7589C195.069 19.0279 194.961 19.3238 194.961 19.6466C194.961 20.1309 195.244 20.5209 195.809 20.8169C196.374 21.0859 197.114 21.3145 198.028 21.5028C198.97 21.6912 199.992 21.8929 201.095 22.1081C202.225 22.3233 203.341 22.6193 204.444 22.9959C205.547 23.3725 206.556 23.8702 207.471 24.4889C208.412 25.1077 209.165 25.9147 209.73 26.9101C210.295 27.9054 210.578 29.1429 210.578 30.6225C210.578 32.3442 210.08 33.9314 209.085 35.3841C208.116 36.8098 206.664 37.9666 204.727 38.8544C202.79 39.7152 200.355 40.1456 197.423 40.1456ZM228.221 40.1456C225.934 40.1456 223.809 39.7825 221.845 39.0561C219.908 38.3298 218.227 37.3075 216.801 35.9893C215.375 34.6443 214.259 33.0705 213.452 31.2681C212.672 29.4657 212.282 27.5019 212.282 25.3767C212.282 23.2245 212.672 21.2607 213.452 19.4852C214.259 17.6828 215.375 16.1225 216.801 14.8044C218.227 13.4593 219.908 12.4236 221.845 11.6972C223.809 10.9709 225.934 10.6077 228.221 10.6077C230.534 10.6077 232.66 10.9709 234.597 11.6972C236.533 12.4236 238.215 13.4593 239.641 14.8044C241.066 16.1225 242.169 17.6828 242.95 19.4852C243.757 21.2607 244.16 23.2245 244.16 25.3767C244.16 27.5019 243.757 29.4657 242.95 31.2681C242.169 33.0705 241.066 34.6443 239.641 35.9893C238.215 37.3075 236.533 38.3298 234.597 39.0561C232.66 39.7825 230.534 40.1456 228.221 40.1456ZM228.221 32.4383C229.109 32.4383 229.929 32.2769 230.682 31.9541C231.463 31.6313 232.135 31.174 232.7 30.5821C233.292 29.9634 233.749 29.2236 234.072 28.3627C234.395 27.475 234.556 26.4796 234.556 25.3767C234.556 24.2737 234.395 23.2918 234.072 22.431C233.749 21.5432 233.292 20.8034 232.7 20.2116C232.135 19.5928 231.463 19.1221 230.682 18.7992C229.929 18.4764 229.109 18.315 228.221 18.315C227.333 18.315 226.499 18.4764 225.719 18.7992C224.966 19.1221 224.293 19.5928 223.701 20.2116C223.136 20.8034 222.693 21.5432 222.37 22.431C222.047 23.2918 221.886 24.2737 221.886 25.3767C221.886 26.4796 222.047 27.475 222.37 28.3627C222.693 29.2236 223.136 29.9634 223.701 30.5821C224.293 31.174 224.966 31.6313 225.719 31.9541C226.499 32.2769 227.333 32.4383 228.221 32.4383ZM247.617 39.5V11.2533H255.445L269.81 28.4435H266.179V11.2533H275.46V39.5H267.631L253.266 22.3099H256.898V39.5H247.617ZM298.368 11.2533H307.891V39.5H298.368V11.2533ZM289.571 39.5H280.048V11.2533H289.571V39.5ZM299.014 29.0891H288.926V21.2607H299.014V29.0891ZM327.289 40.1456C325.002 40.1456 322.877 39.7825 320.913 39.0561C318.977 38.3298 317.295 37.3075 315.869 35.9893C314.444 34.6443 313.327 33.0705 312.52 31.2681C311.74 29.4657 311.35 27.5019 311.35 25.3767C311.35 23.2245 311.74 21.2607 312.52 19.4852C313.327 17.6828 314.444 16.1225 315.869 14.8044C317.295 13.4593 318.977 12.4236 320.913 11.6972C322.877 10.9709 325.002 10.6077 327.289 10.6077C329.603 10.6077 331.728 10.9709 333.665 11.6972C335.602 12.4236 337.283 13.4593 338.709 14.8044C340.135 16.1225 341.238 17.6828 342.018 19.4852C342.825 21.2607 343.228 23.2245 343.228 25.3767C343.228 27.5019 342.825 29.4657 342.018 31.2681C341.238 33.0705 340.135 34.6443 338.709 35.9893C337.283 37.3075 335.602 38.3298 333.665 39.0561C331.728 39.7825 329.603 40.1456 327.289 40.1456ZM327.289 32.4383C328.177 32.4383 328.997 32.2769 329.751 31.9541C330.531 31.6313 331.203 31.174 331.768 30.5821C332.36 29.9634 332.817 29.2236 333.14 28.3627C333.463 27.475 333.624 26.4796 333.624 25.3767C333.624 24.2737 333.463 23.2918 333.14 22.431C332.817 21.5432 332.36 20.8034 331.768 20.2116C331.203 19.5928 330.531 19.1221 329.751 18.7992C328.997 18.4764 328.177 18.315 327.289 18.315C326.401 18.315 325.567 18.4764 324.787 18.7992C324.034 19.1221 323.361 19.5928 322.77 20.2116C322.205 20.8034 321.761 21.5432 321.438 22.431C321.115 23.2918 320.954 24.2737 320.954 25.3767C320.954 26.4796 321.115 27.475 321.438 28.3627C321.761 29.2236 322.205 29.9634 322.77 30.5821C323.361 31.174 324.034 31.6313 324.787 31.9541C325.567 32.2769 326.401 32.4383 327.289 32.4383Z" fill="white"/>
<defs>
<clipPath id="clip0_2477_2405">
<rect width="43" height="43" fill="white" transform="translate(0 3.5)"/>
</clipPath>
</defs>
</svg>
