<svg width="24" height="20" viewBox="0 0 24 20" fill="none" xmlns="http://www.w3.org/2000/svg">
<path d="M23.0111 3.84033C22.4735 2.43089 21.3019 1.29023 19.8752 0.794C18.2693 0.235736 16.4533 0.483853 15.1368 1.44186C13.9376 2.31372 13.2553 3.74729 13.3208 5.1843C12.5006 5.02923 11.6494 5.012 10.8224 5.1395C10.8775 3.55775 10.0194 2.00357 8.59275 1.17651C6.26321 -0.177793 3.04457 0.597574 1.56965 2.86509C0.666781 4.25386 0.590968 6.05271 1.37667 7.44837C2.0969 8.72686 3.46844 9.58838 5.02262 9.76758C4.84342 9.7469 4.44713 11.6285 4.42645 11.8214C3.90954 16.2014 8.03794 19.899 12.2594 19.8025C14.4959 19.7509 16.5394 18.5137 17.873 16.7597C18.5381 15.8878 19.0619 14.8781 19.2859 13.7995C19.4169 13.1585 19.4444 12.5038 19.379 11.8525C19.3583 11.6422 19.0619 9.77792 18.8621 9.78825C20.5162 9.67798 22.0187 8.782 22.7837 7.4208C23.3902 6.33184 23.4729 5.06024 23.0111 3.84033Z" fill="#32BB4E"/>
</svg>
