<svg width="40" height="40" viewBox="0 0 40 40" fill="none" xmlns="http://www.w3.org/2000/svg">
<circle cx="20" cy="20" r="20" fill="#0B5EBF"/>
<g clip-path="url(#clip0_3177_4692)">
<path d="M18.5666 24.8623C18.5666 24.8623 17.662 29.3282 12.1663 29.9368L11.748 27.7982C16.9492 29.0885 18.5666 24.8623 18.5666 24.8623Z" fill="white"/>
<path d="M19.3814 19.3295C19.3814 19.3295 11.9235 18.5395 12.7849 14.0123C13.0594 12.5716 14.9466 11.8349 16.028 12.1062C16.028 12.1062 16.5879 10.1437 19.1905 10.5232C19.1905 10.5232 20.833 10.6849 21.1975 12.4979C21.3092 13.0844 21.26 13.6895 21.0549 14.2512C20.6672 15.3487 19.8222 17.9285 19.9094 19.357C19.9094 19.357 18.3782 17.7106 17.6778 16.0391C17.6779 16.039 18.4733 18.5105 19.3814 19.3295Z" fill="white"/>
<path d="M20.4469 18.8432C20.4469 18.8432 21.5084 11.5648 26.0966 12.564C27.5562 12.8816 28.2429 14.7565 27.9299 15.8061C27.9299 15.8061 29.9121 16.4236 29.4349 18.9588C29.4349 18.9588 29.2137 20.5623 27.3528 20.8568C26.7513 20.9463 26.1364 20.8778 25.5707 20.6582C24.4628 20.2396 21.8612 19.3228 20.4015 19.3594C20.4015 19.3594 22.133 17.9163 23.8613 17.2874C23.8601 17.2867 21.313 17.9816 20.4469 18.8432Z" fill="white"/>
<path d="M20.6113 19.9318C20.6113 19.9318 28.0692 20.7218 27.2079 25.2504C26.9334 26.6911 25.0462 27.4278 23.9648 27.1565C23.9648 27.1565 23.4049 29.119 20.8023 28.7395C20.8023 28.7395 19.1598 28.5779 18.7953 26.7648C18.6838 26.1784 18.7331 25.5735 18.9381 25.0118C19.3269 23.9126 20.1721 21.3325 20.0849 19.9041C20.0849 19.9041 21.616 21.5505 22.3184 23.2216C22.3151 23.2233 21.52 20.7517 20.6113 19.9318Z" fill="white"/>
<path d="M19.549 20.4158C19.549 20.4158 18.4871 27.6943 13.9002 26.695C12.441 26.3773 11.7539 24.5025 12.0669 23.4529C12.0669 23.4529 10.0851 22.8354 10.5619 20.3002C10.5619 20.3002 10.7831 18.6967 12.6445 18.4021C13.2459 18.3127 13.8607 18.3811 14.4263 18.6006C15.5341 19.0192 18.1357 19.9359 19.5951 19.8995C19.5951 19.8995 17.8636 21.3426 16.1353 21.9714C16.1352 21.9714 18.6825 21.2773 19.549 20.4158Z" fill="white"/>
</g>
<defs>
<clipPath id="clip0_3177_4692">
<rect width="20" height="20" fill="white" transform="translate(10 10)"/>
</clipPath>
</defs>
</svg>
