<svg width="19" height="18" viewBox="0 0 19 18" fill="none" xmlns="http://www.w3.org/2000/svg">
<path d="M13.4609 11H12.6709L12.3909 10.73C13.3709 9.59 13.9609 8.11 13.9609 6.5C13.9609 2.91 11.0509 0 7.46094 0C3.87094 0 0.960938 2.91 0.960938 6.5C0.960938 10.09 3.87094 13 7.46094 13C9.07094 13 10.5509 12.41 11.6909 11.43L11.9609 11.71V12.5L16.9609 17.49L18.4509 16L13.4609 11ZM7.46094 11C4.97094 11 2.96094 8.99 2.96094 6.5C2.96094 4.01 4.97094 2 7.46094 2C9.95094 2 11.9609 4.01 11.9609 6.5C11.9609 8.99 9.95094 11 7.46094 11Z" fill="#2E3D45"/>
</svg>
