<svg width="22" height="22" viewBox="0 0 22 22" fill="none" xmlns="http://www.w3.org/2000/svg">
<g clip-path="url(#clip0_2527_1484)">
<path d="M21.0827 11L18.846 8.4425L19.1577 5.06L15.8485 4.30833L14.116 1.375L10.9993 2.71333L7.88268 1.375L6.15018 4.29917L2.84102 5.04167L3.15268 8.43333L0.916016 11L3.15268 13.5575L2.84102 16.9492L6.15018 17.7008L7.88268 20.625L10.9993 19.2775L14.116 20.6158L15.8485 17.6917L19.1577 16.94L18.846 13.5575L21.0827 11ZM9.24852 15.3267L5.76518 11.8342L7.12185 10.4775L9.24852 12.6133L14.611 7.2325L15.9677 8.58917L9.24852 15.3267Z" fill="#00A35B"/>
</g>
<defs>
<clipPath id="clip0_2527_1484">
<rect width="22" height="22" fill="white"/>
</clipPath>
</defs>
</svg>
