<svg width="16" height="17" viewBox="0 0 16 17" fill="none" xmlns="http://www.w3.org/2000/svg">
<path d="M7.9425 1.21572C8.0457 1.08658 8.17349 0.979203 8.31847 0.899789C8.46344 0.820375 8.62274 0.770506 8.78712 0.753068C8.9515 0.73563 9.11771 0.75097 9.27612 0.798199C9.43453 0.845429 9.582 0.92361 9.71 1.02822L13.7875 4.35822C14.0117 4.54131 14.1655 4.79655 14.2225 5.08037C14.2795 5.3642 14.2362 5.65901 14.1 5.91447C13.7435 5.80551 13.3728 5.75032 13 5.75072H12.625L12.9975 5.32572L10.85 3.57197L9.07875 5.75197H7.4675L9.88125 2.78197L8.91875 1.99572L5.92125 5.75072H4.32125L7.9425 1.21572ZM11.125 12.0007C10.9592 12.0007 10.8003 12.0666 10.6831 12.1838C10.5658 12.301 10.5 12.46 10.5 12.6257C10.5 12.7915 10.5658 12.9504 10.6831 13.0677C10.8003 13.1849 10.9592 13.2507 11.125 13.2507H12.375C12.5408 13.2507 12.6997 13.1849 12.8169 13.0677C12.9342 12.9504 13 12.7915 13 12.6257C13 12.46 12.9342 12.301 12.8169 12.1838C12.6997 12.0666 12.5408 12.0007 12.375 12.0007H11.125ZM1.75 6.37572C1.75 6.20996 1.81585 6.05099 1.93306 5.93377C2.05027 5.81657 2.20924 5.75072 2.375 5.75072H3.0725L4.06625 4.50072H2.375C1.87772 4.50072 1.40081 4.69826 1.04917 5.04989C0.697544 5.40152 0.5 5.87844 0.5 6.37572V13.8757C0.5 14.7045 0.82924 15.4994 1.41529 16.0854C2.00134 16.6715 2.7962 17.0007 3.625 17.0007H13C13.663 17.0007 14.2989 16.7373 14.7678 16.2685C15.2366 15.7996 15.5 15.1638 15.5 14.5007V9.50072C15.5 8.83768 15.2366 8.20179 14.7678 7.73295C14.2989 7.26411 13.663 7.00072 13 7.00072H2.375C2.20924 7.00072 2.05027 6.93487 1.93306 6.81766C1.81585 6.70045 1.75 6.54148 1.75 6.37572ZM1.75 13.8757V8.14447C1.945 8.21322 2.15625 8.25072 2.375 8.25072H13C13.3315 8.25072 13.6495 8.38241 13.8839 8.61683C14.1183 8.85125 14.25 9.1692 14.25 9.50072V14.5007C14.25 14.8322 14.1183 15.1502 13.8839 15.3846C13.6495 15.619 13.3315 15.7507 13 15.7507H3.625C3.12772 15.7507 2.65081 15.5532 2.29917 15.2015C1.94754 14.8499 1.75 14.373 1.75 13.8757Z" fill="white"/>
</svg>
