<svg width="32" height="32" viewBox="0 0 32 32" fill="none" xmlns="http://www.w3.org/2000/svg">
<rect width="32" height="32" rx="16" fill="#008F4F"/>
<path fill-rule="evenodd" clip-rule="evenodd" d="M20.8022 11.2248C20.1785 10.5969 19.4364 10.0991 18.6189 9.76013C17.8014 9.42116 16.9247 9.24777 16.0398 9.25002C12.3288 9.25002 9.30775 12.2703 9.30625 15.9828C9.30625 17.1693 9.616 18.3273 10.2047 19.3488L9.25 22.837L12.8192 21.9003C13.8065 22.4377 14.9126 22.7195 16.0367 22.72H16.0398C19.75 22.72 22.771 19.6998 22.7725 15.9873C22.775 15.1026 22.6022 14.2263 22.2641 13.4088C21.9259 12.5914 21.429 11.8491 20.8022 11.2248ZM16.0398 21.5838H16.0375C15.0351 21.5839 14.0512 21.3142 13.189 20.803L12.985 20.6815L10.867 21.2373L11.4317 19.1725L11.299 18.961C10.7386 18.0688 10.4419 17.0364 10.4433 15.9828C10.4448 12.8973 12.955 10.387 16.042 10.387C16.7772 10.3854 17.5054 10.5296 18.1845 10.8113C18.8636 11.0929 19.4801 11.5065 19.9982 12.028C20.5192 12.5471 20.9321 13.1642 21.2132 13.8438C21.4942 14.5233 21.6377 15.2519 21.6355 15.9873C21.634 19.0728 19.1238 21.5838 16.0398 21.5838ZM19.1095 17.392C18.9408 17.3073 18.1143 16.9008 17.9598 16.8445C17.806 16.7883 17.6943 16.7605 17.5817 16.9285C17.4692 17.0965 17.1467 17.4753 17.0485 17.5878C16.9502 17.7003 16.852 17.7138 16.684 17.6298C16.516 17.5458 15.9737 17.368 15.331 16.795C14.8307 16.3488 14.4932 15.7983 14.395 15.6295C14.2967 15.4608 14.3845 15.37 14.4692 15.286C14.545 15.211 14.6372 15.0895 14.7213 14.9913C14.8053 14.893 14.833 14.8233 14.8892 14.7108C14.9455 14.5983 14.9177 14.5 14.875 14.416C14.833 14.3313 14.4962 13.5033 14.356 13.1665C14.2202 12.8403 14.0815 12.8838 13.978 12.8793C13.8708 12.8749 13.7635 12.8729 13.6562 12.8733C13.5709 12.8754 13.487 12.8952 13.4097 12.9314C13.3324 12.9675 13.2634 13.0192 13.207 13.0833C13.0525 13.252 12.6183 13.6585 12.6183 14.4865C12.6183 15.3145 13.2212 16.1148 13.3052 16.2273C13.3892 16.3398 14.4918 18.0385 16.1793 18.7675C16.5813 18.9408 16.8947 19.0443 17.1385 19.1223C17.5412 19.2505 17.908 19.2318 18.1982 19.189C18.5215 19.141 19.1935 18.7825 19.3337 18.3895C19.474 17.9965 19.474 17.6598 19.432 17.5893C19.39 17.5188 19.2767 17.476 19.1095 17.392Z" fill="white"/>
</svg>
