<svg width="32" height="32" viewBox="0 0 32 32" fill="none" xmlns="http://www.w3.org/2000/svg">
<g clip-path="url(#clip0_2931_6435)">
<path d="M0.678533 15.8086C0.677789 18.4972 1.3803 21.1224 2.71611 23.4363L0.550781 31.3423L8.64157 29.2209C10.8794 30.4391 13.3867 31.0775 15.9346 31.0776H15.9413C24.3525 31.0776 31.1993 24.2332 31.2029 15.8206C31.2045 11.7441 29.6184 7.91076 26.7367 5.02679C23.8555 2.14307 20.0235 0.554107 15.9407 0.552246C7.52852 0.552246 0.68213 7.39628 0.678657 15.8086" fill="url(#paint0_linear_2931_6435)"/>
<path d="M0.132713 15.8035C0.131845 18.5889 0.859535 21.308 2.24298 23.7048L0 31.8942L8.3809 29.6967C10.6901 30.9558 13.29 31.6196 15.9356 31.6206H15.9424C24.6554 31.6206 31.7482 24.53 31.7519 15.8162C31.7534 11.5932 30.1103 7.62208 27.1256 4.63479C24.1405 1.64788 20.1715 0.00173643 15.9424 0C7.22803 0 0.13631 7.08961 0.132837 15.8035H0.132713ZM5.12372 23.292L4.81079 22.7953C3.49532 20.7036 2.80099 18.2865 2.80198 15.8045C2.80484 8.56174 8.69929 2.66915 15.9474 2.66915C19.4575 2.67064 22.7562 4.03895 25.2373 6.52155C27.7183 9.0044 29.0835 12.3049 29.0827 15.8152C29.0794 23.058 23.1849 28.9513 15.9424 28.9513H15.9372C13.579 28.9501 11.2662 28.3168 9.24924 27.12L8.76924 26.8354L3.79585 28.1393L5.12372 23.2919V23.292Z" fill="url(#paint1_linear_2931_6435)"/>
<path d="M11.992 9.19662C11.6961 8.53888 11.3846 8.52561 11.1032 8.51407C10.8728 8.50415 10.6093 8.5049 10.3461 8.5049C10.0827 8.5049 9.65465 8.604 9.29285 8.99904C8.93068 9.39445 7.91016 10.35 7.91016 12.2934C7.91016 14.237 9.32572 16.1152 9.52306 16.379C9.72064 16.6423 12.2558 20.7582 16.271 22.3415C19.6079 23.6574 20.287 23.3957 21.0112 23.3297C21.7355 23.264 23.3484 22.3744 23.6775 21.452C24.0068 20.5297 24.0068 19.7391 23.908 19.5739C23.8093 19.4093 23.5459 19.3105 23.1508 19.113C22.7557 18.9154 20.8136 17.9598 20.4516 17.8279C20.0894 17.6962 19.8261 17.6305 19.5626 18.026C19.2992 18.4209 18.5427 19.3105 18.3121 19.5739C18.0818 19.838 17.8512 19.8708 17.4563 19.6733C17.061 19.4751 15.7889 19.0584 14.2795 17.7128C13.1052 16.6658 12.3124 15.3727 12.0819 14.9772C11.8515 14.5823 12.0573 14.3682 12.2553 14.1714C12.4328 13.9944 12.6505 13.7101 12.8482 13.4795C13.0452 13.2488 13.1109 13.0842 13.2426 12.8208C13.3745 12.5571 13.3085 12.3264 13.2099 12.1288C13.1109 11.9313 12.3433 9.97776 11.992 9.19674" fill="white"/>
</g>
<defs>
<linearGradient id="paint0_linear_2931_6435" x1="15.8769" y1="31.3423" x2="15.8769" y2="0.552246" gradientUnits="userSpaceOnUse">
<stop stop-color="#1FAF38"/>
<stop offset="1" stop-color="#60D669"/>
</linearGradient>
<linearGradient id="paint1_linear_2931_6435" x1="15.876" y1="31.8942" x2="15.876" y2="0" gradientUnits="userSpaceOnUse">
<stop stop-color="#F9F9F9"/>
<stop offset="1" stop-color="white"/>
</linearGradient>
<clipPath id="clip0_2931_6435">
<rect width="31.7519" height="32" fill="white"/>
</clipPath>
</defs>
</svg>
