<svg width="50" height="50" viewBox="0 0 50 50" fill="none" xmlns="http://www.w3.org/2000/svg">
<path d="M25 3.125C12.9199 3.125 3.125 12.9199 3.125 25C3.125 37.0801 12.9199 46.875 25 46.875C37.0801 46.875 46.875 37.0801 46.875 25C46.875 12.9199 37.0801 3.125 25 3.125ZM25 43.1641C14.9707 43.1641 6.83594 35.0293 6.83594 25C6.83594 14.9707 14.9707 6.83594 25 6.83594C35.0293 6.83594 43.1641 14.9707 43.1641 25C43.1641 35.0293 35.0293 43.1641 25 43.1641Z" fill="white"/>
<path d="M33.5303 31.1816L26.5674 26.1475V14.0625C26.5674 13.8477 26.3916 13.6719 26.1768 13.6719H23.8281C23.6133 13.6719 23.4375 13.8477 23.4375 14.0625V27.5098C23.4375 27.6367 23.4961 27.7539 23.5986 27.8271L31.6748 33.7158C31.8506 33.8428 32.0947 33.8037 32.2217 33.6328L33.6182 31.7285C33.7451 31.5478 33.7061 31.3037 33.5303 31.1816Z" fill="white"/>
</svg>
