<svg width="24" height="24" viewBox="0 0 133 132" fill="none" xmlns="http://www.w3.org/2000/svg">
<path d="M57.0358 98.1056C57.0358 98.1056 51.0655 127.581 14.7941 131.597L12.0332 117.482C46.3609 125.998 57.0358 98.1056 57.0358 98.1056Z" fill="white"/>
<path d="M62.4329 61.5691C62.4329 61.5691 13.2105 56.3548 18.896 26.4752C20.7074 16.9667 33.1633 12.1046 40.3002 13.895C40.3002 13.895 43.9957 0.94286 61.173 3.44753C61.173 3.44753 72.0136 4.51423 74.4189 16.4806C75.1562 20.3515 74.8313 24.3448 73.4775 28.0522C70.9188 35.2955 65.342 52.3225 65.9176 61.7501C65.9176 61.7501 55.8119 50.884 51.1888 39.8519C51.1896 39.8513 56.4393 56.1635 62.4329 61.5691Z" fill="white"/>
<path d="M69.4687 58.3796C69.4687 58.3796 76.475 10.3425 106.757 16.937C116.39 19.0334 120.922 31.4077 118.857 38.3352C118.857 38.3352 131.939 42.4105 128.79 59.1428C128.79 59.1428 127.33 69.7257 115.048 71.6695C111.078 72.2601 107.019 71.808 103.286 70.3592C95.9741 67.5961 78.8035 61.5455 69.1695 61.7867C69.1695 61.7867 80.5968 52.2623 92.0039 48.1119C91.9961 48.1068 75.1852 52.6936 69.4687 58.3796Z" fill="white"/>
<path d="M70.5541 65.5538C70.5541 65.5538 119.776 70.7678 114.091 100.657C112.28 110.165 99.8242 115.027 92.6873 113.237C92.6873 113.237 88.9918 126.189 71.8145 123.685C71.8145 123.685 60.9739 122.618 58.5685 110.651C57.8326 106.781 58.1578 102.789 59.5108 99.0819C62.0767 91.8272 67.6554 74.7985 67.0794 65.371C67.0794 65.371 77.1851 76.2371 81.8207 87.2667C81.7987 87.2779 76.5515 70.9653 70.5541 65.5538Z" fill="white"/>
<path d="M63.5234 68.7496C63.5234 68.7496 56.5145 116.787 26.2412 110.192C16.6106 108.096 12.076 95.7216 14.1415 88.7941C14.1415 88.7941 1.06141 84.7184 4.20859 67.9865C4.20859 67.9865 5.66838 57.4036 17.9539 55.4592C21.923 54.8686 25.9809 55.3206 29.7136 56.769C37.0249 59.5318 54.1959 65.5823 63.8274 65.3416C63.8274 65.3416 52.4 74.866 40.993 79.0164C40.9926 79.0164 57.8046 74.4351 63.5234 68.7496Z" fill="white"/>
</svg>
