<svg width="161" height="160" viewBox="0 0 161 160" fill="none" xmlns="http://www.w3.org/2000/svg">
<path d="M69.0229 118.915C69.0229 118.915 61.7863 154.642 17.821 159.51L14.4744 142.402C56.0837 152.724 69.0229 118.915 69.0229 118.915Z" fill="white"/>
<path d="M75.575 74.6297C75.575 74.6297 15.9113 68.3094 22.8029 32.0917C24.9985 20.5662 40.0966 14.6728 48.7474 16.8429C48.7474 16.8429 53.2268 1.14337 74.0478 4.17934C74.0478 4.17934 87.1878 5.4723 90.1034 19.977C90.9971 24.6689 90.6033 29.5093 88.9623 34.0031C85.8608 42.7829 79.1011 63.4216 79.7987 74.8491C79.7987 74.8491 67.5494 61.678 61.9457 48.3059C61.9466 48.3052 68.31 68.0775 75.575 74.6297Z" fill="white"/>
<path d="M84.1043 70.763C84.1043 70.763 92.5968 12.5361 129.302 20.5295C140.979 23.0706 146.472 38.0698 143.969 46.4667C143.969 46.4667 159.826 51.4065 156.009 71.688C156.009 71.688 154.239 84.5159 139.352 86.8719C134.54 87.5879 129.62 87.0398 125.095 85.2837C116.232 81.9345 95.4192 74.6004 83.7416 74.8927C83.7416 74.8927 97.5929 63.3481 111.42 58.3173C111.41 58.3111 91.0334 63.8709 84.1043 70.763Z" fill="white"/>
<path d="M85.4199 79.4601C85.4199 79.4601 145.083 85.78 138.192 122.009C135.997 133.535 120.899 139.428 112.248 137.258C112.248 137.258 107.769 152.957 86.9476 149.922C86.9476 149.922 73.8076 148.629 70.892 134.124C69.9999 129.433 70.3941 124.593 72.0342 120.1C75.1442 111.307 81.9063 90.6657 81.2081 79.2384C81.2081 79.2384 93.4575 92.4095 99.0764 105.779C99.0497 105.792 92.6895 86.0194 85.4199 79.4601Z" fill="white"/>
<path d="M76.892 83.3321C76.892 83.3321 68.3964 141.56 31.7015 133.566C20.028 131.024 14.5315 116.026 17.0351 107.629C17.0351 107.629 1.1805 102.688 4.99526 82.4073C4.99526 82.4073 6.76471 69.5794 21.6563 67.2226C26.4673 66.5068 31.386 67.0546 35.9105 68.8103C44.7727 72.1591 65.586 79.493 77.2605 79.2013C77.2605 79.2013 63.4091 90.746 49.5824 95.7768C49.5819 95.7769 69.9601 90.2237 76.892 83.3321Z" fill="white"/>
</svg>
